<?xml version="1.0" encoding="UTF-8" standalone="no"?>
<!DOCTYPE svg PUBLIC "-//W3C//DTD SVG 1.1//EN" "http://www.w3.org/Graphics/SVG/1.1/DTD/svg11.dtd">
<!-- Created with Vectornator (http://vectornator.io/) -->
<svg height="100%" stroke-miterlimit="10" style="fill-rule:nonzero;clip-rule:evenodd;stroke-linecap:round;stroke-linejoin:round;" version="1.1" viewBox="0 0 1260 180" width="100%" xml:space="preserve" xmlns="http://www.w3.org/2000/svg" xmlns:vectornator="http://vectornator.io" xmlns:xlink="http://www.w3.org/1999/xlink">
<defs/>
<g id="Untitled" vectornator:layerName="Untitled">
<g opacity="1" vectornator:layerName="g">
<path d="M148 60C165.67 60 180 77.9 180 100C180 122.1 165.67 140 148 140L52 140C34.33 140 20 122.1 20 100C20 77.9 34.33 60 52 60L148 60Z" fill="#d2d3d5" fill-rule="nonzero" opacity="1" stroke="#000000" stroke-linecap="butt" stroke-linejoin="miter" stroke-opacity="0" stroke-width="2" vectornator:layerName="path"/>
<g opacity="1" vectornator:layerName="a">
<path d="M43.35 88.15C43.3 91.4 41.35 93 38.15 93C35.1 93 33.15 91.4 33.15 88.3L33.15 80.4L34.8 80.4C35.2 84.85 33.15 91.6 38.15 91.6C43.25 91.6 41.35 84.95 41.7 80.4L43.35 80.4L43.35 88.15" fill="#3d4752" fill-rule="nonzero" opacity="1" stroke="none" vectornator:layerName="path"/>
<path d="M50.45 83.1C53.2 83.15 53.95 85.15 53.95 88C53.95 90.85 53.15 92.9 50.45 93C48.9 93 48 92.35 47.45 91.3L47.5 96.55L45.9 96.55L45.85 83.3L47.4 83.3L47.5 84.8C48 83.75 48.9 83.1 50.45 83.1ZM50.05 91.8C52.05 91.8 52.3 90.1 52.3 88.05C52.3 86 52 84.4 50.05 84.35C47.95 84.35 47.5 85.95 47.5 88.15C47.5 90.3 48 91.8 50.05 91.8" fill="#3d4752" fill-rule="nonzero" opacity="1" stroke="none" vectornator:layerName="path"/>
<path d="M55.9 92.8L55.9 79.75L57.5 79.75L57.5 92.8L55.9 92.8" fill="#3d4752" fill-rule="nonzero" opacity="1" stroke="none" vectornator:layerName="path"/>
<path d="M63.65 83.1C66.75 83.05 67.9 84.95 67.9 88.05C67.95 91.2 66.55 93 63.6 93C60.65 93 59.45 91.05 59.4 88.05C59.4 84.75 60.8 83.1 63.65 83.1ZM63.6 91.8C65.8 91.85 66.25 90.25 66.25 88.05C66.25 85.9 65.85 84.3 63.7 84.3C61.55 84.3 61.05 85.9 61.05 88.05C61.05 90.2 61.55 91.75 63.6 91.8" fill="#3d4752" fill-rule="nonzero" opacity="1" stroke="none" vectornator:layerName="path"/>
<path d="M75.7 91C74.95 92.05 74.15 93.05 72.3 93C70.5 92.95 69.4 91.95 69.4 90.15C69.35 86.95 72.55 87 75.65 87C75.8 85.25 75.2 84.3 73.6 84.3C72.4 84.35 71.55 84.65 71.5 85.85L69.85 85.7C70.1 83.85 71.5 83.1 73.65 83.1C75.9 83.1 77.25 84.1 77.25 86.3L77.25 90.4C77.2 91.4 77.6 92 78.65 91.75L78.65 92.75C77.1 93.2 75.6 92.65 75.7 91ZM71.05 90.15C71.05 91.15 71.65 91.8 72.65 91.8C74.7 91.65 75.8 90.35 75.65 88.1C73.5 88.2 71.05 87.85 71.05 90.15" fill="#3d4752" fill-rule="nonzero" opacity="1" stroke="none" vectornator:layerName="path"/>
<path d="M82.9 83.1C84.45 83.1 85.3 83.75 85.9 84.75L85.85 79.75L87.45 79.75L87.5 92.8L86 92.8C85.9 92.3 86 91.65 85.85 91.25C85.35 92.4 84.45 93 82.9 93C80.25 93 79.45 91.05 79.4 88.1C79.4 84.8 80.55 83.1 82.9 83.1ZM83.35 84.3C81.35 84.3 81.05 86 81.05 88.05C81.05 90.05 81.35 91.75 83.3 91.75C85.4 91.75 85.85 90.15 85.85 87.95C85.85 85.85 85.4 84.25 83.35 84.3" fill="#3d4752" fill-rule="nonzero" opacity="1" stroke="none" vectornator:layerName="path"/>
</g>
<g opacity="1" vectornator:layerName="b">
<path d="M100.5 92.8L98.8 92.8L93.75 80.4L95.5 80.4L99.65 91.3L103.8 80.4L105.6 80.4" fill="#3d4752" fill-rule="nonzero" opacity="1" stroke="none" vectornator:layerName="path"/>
<path d="M106.5 81.25L106.5 79.75L108.1 79.75L108.1 81.25L106.5 81.25ZM106.5 92.8L106.5 83.3L108.1 83.3L108.1 92.8L106.5 92.8" fill="#3d4752" fill-rule="nonzero" opacity="1" stroke="none" vectornator:layerName="path"/>
<path d="M113.5 83.1C115.05 83.1 115.9 83.75 116.5 84.75L116.45 79.75L118.05 79.75L118.1 92.8L116.6 92.8C116.5 92.3 116.6 91.65 116.45 91.25C115.95 92.4 115.05 93 113.5 93C110.85 93 110.05 91.05 110 88.1C110 84.8 111.15 83.1 113.5 83.1ZM113.95 84.3C111.95 84.3 111.65 86 111.65 88.05C111.65 90.05 111.95 91.75 113.9 91.75C116 91.75 116.45 90.15 116.45 87.95C116.45 85.85 116 84.25 113.95 84.3" fill="#3d4752" fill-rule="nonzero" opacity="1" stroke="none" vectornator:layerName="path"/>
<path d="M124.25 83.1C127.4 83.1 128.55 85.2 128.45 88.4L121.7 88.4C121.7 90.4 122.4 91.75 124.35 91.8C125.65 91.85 126.5 91.2 126.8 90.35L128.2 90.75C127.65 92.15 126.35 93 124.35 93C121.45 93 119.95 91.15 120 88C120.05 84.95 121.3 83.1 124.25 83.1ZM126.85 87.15C127.15 84.15 123.05 83.3 122 85.75C121.85 86.1 121.7 86.6 121.7 87.15L126.85 87.15" fill="#3d4752" fill-rule="nonzero" opacity="1" stroke="none" vectornator:layerName="path"/>
<path d="M134.25 83.1C137.35 83.05 138.5 84.95 138.5 88.05C138.55 91.2 137.15 93 134.2 93C131.25 93 130.05 91.05 130 88.05C130 84.75 131.4 83.1 134.25 83.1ZM134.2 91.8C136.4 91.85 136.85 90.25 136.85 88.05C136.85 85.9 136.45 84.3 134.3 84.3C132.15 84.3 131.65 85.9 131.65 88.05C131.65 90.2 132.15 91.75 134.2 91.8" fill="#3d4752" fill-rule="nonzero" opacity="1" stroke="none" vectornator:layerName="path"/>
<path d="M146 85.65C145.85 83.95 141.7 83.75 141.65 85.65C142.4 88.3 147.4 86.25 147.6 90.15C147.8 94.05 140.1 93.85 139.75 90.55L141.15 90.3C141.35 92.1 146 92.55 146.05 90.3C145.55 87.5 140.4 89.55 140.15 85.8C139.95 82.95 144.25 82.65 146.25 83.7C146.85 84.05 147.3 84.65 147.45 85.45" fill="#3d4752" fill-rule="nonzero" opacity="1" stroke="none" vectornator:layerName="path"/>
</g>
<g opacity="1" vectornator:layerName="c">
<path d="M156.2 90.45C156.1 91.65 157.1 91.9 158.1 91.55L158.1 92.75C156.45 93.25 154.6 93 154.6 90.8L154.6 84.45L153.5 84.45L153.5 83.3L154.7 83.3L155.15 81.15L156.2 81.15L156.2 83.3L157.95 83.3L157.95 84.45L156.2 84.45L156.2 90.45" fill="#3d4752" fill-rule="nonzero" opacity="1" stroke="none" vectornator:layerName="path"/>
<path d="M163.25 83.1C166.35 83.05 167.5 84.95 167.5 88.05C167.55 91.2 166.15 93 163.2 93C160.25 93 159.05 91.05 159 88.05C159 84.75 160.4 83.1 163.25 83.1ZM163.2 91.8C165.4 91.85 165.85 90.25 165.85 88.05C165.85 85.9 165.45 84.3 163.3 84.3C161.15 84.3 160.65 85.9 160.65 88.05C160.65 90.2 161.15 91.75 163.2 91.8" fill="#3d4752" fill-rule="nonzero" opacity="1" stroke="none" vectornator:layerName="path"/>
</g>
<g opacity="1" vectornator:layerName="d">
<path d="M65.55 107.85C67.3 108.1 68.6 109 68.6 110.9C68.6 115.25 63.3 114.3 59.05 114.4L59.05 102C62.85 102.15 67.9 101.15 67.9 105C67.9 106.65 66.95 107.5 65.55 107.85ZM60.7 107.3C63.2 107.25 66.2 107.75 66.2 105.2C66.2 102.85 63.05 103.4 60.7 103.35L60.7 107.3ZM60.7 113.05C63.45 112.95 66.9 113.75 66.9 110.8C66.9 108 63.4 108.7 60.7 108.6L60.7 113.05" fill="#3d4752" fill-rule="nonzero" opacity="1" stroke="none" vectornator:layerName="path"/>
<path d="M75.25 106.25C71.35 105.45 72.6 110.8 72.4 114.4L70.8 114.4L70.75 104.9L72.25 104.9C72.3 105.5 72.2 106.35 72.35 106.85C72.65 105.5 73.5 104.4 75.25 104.8L75.25 106.25" fill="#3d4752" fill-rule="nonzero" opacity="1" stroke="none" vectornator:layerName="path"/>
<path d="M76.7 102.85L76.7 101.35L78.3 101.35L78.3 102.85L76.7 102.85ZM76.7 114.4L76.7 104.9L78.3 104.9L78.3 114.4L76.7 114.4" fill="#3d4752" fill-rule="nonzero" opacity="1" stroke="none" vectornator:layerName="path"/>
<path d="M88.3 104.9C87.8 111.15 90.35 119.55 82.8 117.95C81.65 117.65 80.9 116.95 80.6 115.8L82.2 115.55C82.95 117.9 87.2 117.15 86.65 114.15L86.65 112.65C86.1 113.7 85.2 114.45 83.6 114.45C80.9 114.45 80.2 112.4 80.2 109.65C80.2 106.85 81 104.8 83.75 104.75C85.2 104.7 86.15 105.55 86.7 106.5C86.75 106 86.7 105.35 86.8 104.9L88.3 104.9ZM84.15 113.3C85.95 113.3 86.65 111.7 86.65 109.65C86.65 107.55 85.95 105.9 84.15 105.9C82.2 105.9 81.85 107.6 81.85 109.65C81.85 111.7 82.15 113.3 84.15 113.3" fill="#3d4752" fill-rule="nonzero" opacity="1" stroke="none" vectornator:layerName="path"/>
<path d="M94.75 105.95C91.15 105.95 92.55 111.05 92.3 114.4L90.7 114.4L90.7 101.35L92.3 101.35L92.25 106.5C92.85 105.45 93.65 104.7 95.3 104.7C99.75 104.7 97.95 110.5 98.3 114.4L96.7 114.4L96.7 108.35C96.8 106.75 96.3 105.9 94.75 105.95" fill="#3d4752" fill-rule="nonzero" opacity="1" stroke="none" vectornator:layerName="path"/>
<path d="M102.4 112.05C102.3 113.25 103.3 113.5 104.3 113.15L104.3 114.35C102.65 114.85 100.8 114.6 100.8 112.4L100.8 106.05L99.7 106.05L99.7 104.9L100.9 104.9L101.35 102.75L102.4 102.75L102.4 104.9L104.15 104.9L104.15 106.05L102.4 106.05L102.4 112.05" fill="#3d4752" fill-rule="nonzero" opacity="1" stroke="none" vectornator:layerName="path"/>
<path d="M109.25 105.95C107.25 105.95 106.85 107.6 106.85 109.6C106.85 111.6 107.3 113.35 109.25 113.35C110.45 113.35 111.3 112.65 111.4 111.45L113 111.55C112.7 113.4 111.45 114.6 109.3 114.6C106.35 114.6 105.5 112.55 105.2 109.65C104.7 105 110.25 103.1 112.55 106.45C112.75 106.8 112.8 107.15 112.9 107.55L111.3 107.7C111.1 106.65 110.5 105.95 109.25 105.95" fill="#3d4752" fill-rule="nonzero" opacity="1" stroke="none" vectornator:layerName="path"/>
<path d="M118.45 104.7C121.55 104.65 122.7 106.55 122.7 109.65C122.75 112.8 121.35 114.6 118.4 114.6C115.45 114.6 114.25 112.65 114.2 109.65C114.2 106.35 115.6 104.7 118.45 104.7ZM118.4 113.4C120.6 113.45 121.05 111.85 121.05 109.65C121.05 107.5 120.65 105.9 118.5 105.9C116.35 105.9 115.85 107.5 115.85 109.65C115.85 111.8 116.35 113.35 118.4 113.4" fill="#3d4752" fill-rule="nonzero" opacity="1" stroke="none" vectornator:layerName="path"/>
<path d="M128.85 114.4L126.95 114.4L123.5 104.9L125.2 104.9L127.9 113.15L130.7 104.9L132.4 104.9" fill="#3d4752" fill-rule="nonzero" opacity="1" stroke="none" vectornator:layerName="path"/>
<path d="M137.45 104.7C140.6 104.7 141.75 106.8 141.65 110L134.9 110C134.9 112 135.6 113.35 137.55 113.4C138.85 113.45 139.7 112.8 140 111.95L141.4 112.35C140.85 113.75 139.55 114.6 137.55 114.6C134.65 114.6 133.15 112.75 133.2 109.6C133.25 106.55 134.5 104.7 137.45 104.7ZM140.05 108.75C140.35 105.75 136.25 104.9 135.2 107.35C135.05 107.7 134.9 108.2 134.9 108.75L140.05 108.75" fill="#3d4752" fill-rule="nonzero" opacity="1" stroke="none" vectornator:layerName="path"/>
</g>
<path d="M220 28C220 23.5817 223.582 20 228 20L372 20C376.418 20 380 23.5817 380 28L380 172C380 176.418 376.418 180 372 180L228 180C223.582 180 220 176.418 220 172L220 28Z" fill="#d85656" fill-rule="nonzero" opacity="1" stroke="#000000" stroke-linecap="butt" stroke-linejoin="miter" stroke-opacity="0" stroke-width="2" vectornator:layerName="path"/>
<g opacity="1" vectornator:layerName="e">
<path d="M233.575 64.65C235.325 64.9 236.625 65.8 236.625 67.7C236.625 72.05 231.325 71.1 227.075 71.2L227.075 58.8C230.875 58.95 235.925 57.95 235.925 61.8C235.925 63.45 234.975 64.3 233.575 64.65ZM228.725 64.1C231.225 64.05 234.225 64.55 234.225 62C234.225 59.65 231.075 60.2 228.725 60.15L228.725 64.1ZM228.725 69.85C231.475 69.75 234.925 70.55 234.925 67.6C234.925 64.8 231.425 65.5 228.725 65.4L228.725 69.85" fill="#ffffff" fill-rule="nonzero" opacity="1" stroke="none" vectornator:layerName="path"/>
<path d="M243.275 63.05C239.375 62.25 240.625 67.6 240.425 71.2L238.825 71.2L238.775 61.7L240.275 61.7C240.325 62.3 240.225 63.15 240.375 63.65C240.675 62.3 241.525 61.2 243.275 61.6L243.275 63.05" fill="#ffffff" fill-rule="nonzero" opacity="1" stroke="none" vectornator:layerName="path"/>
<path d="M244.725 59.65L244.725 58.15L246.325 58.15L246.325 59.65L244.725 59.65ZM244.725 71.2L244.725 61.7L246.325 61.7L246.325 71.2L244.725 71.2" fill="#ffffff" fill-rule="nonzero" opacity="1" stroke="none" vectornator:layerName="path"/>
<path d="M256.325 61.7C255.825 67.95 258.375 76.35 250.825 74.75C249.675 74.45 248.925 73.75 248.625 72.6L250.225 72.35C250.975 74.7 255.225 73.95 254.675 70.95L254.675 69.45C254.125 70.5 253.225 71.25 251.625 71.25C248.925 71.25 248.225 69.2 248.225 66.45C248.225 63.65 249.025 61.6 251.775 61.55C253.225 61.5 254.175 62.35 254.725 63.3C254.775 62.8 254.725 62.15 254.825 61.7L256.325 61.7ZM252.175 70.1C253.975 70.1 254.675 68.5 254.675 66.45C254.675 64.35 253.975 62.7 252.175 62.7C250.225 62.7 249.875 64.4 249.875 66.45C249.875 68.5 250.175 70.1 252.175 70.1" fill="#ffffff" fill-rule="nonzero" opacity="1" stroke="none" vectornator:layerName="path"/>
<path d="M262.775 62.75C259.175 62.75 260.575 67.85 260.325 71.2L258.725 71.2L258.725 58.15L260.325 58.15L260.275 63.3C260.875 62.25 261.675 61.5 263.325 61.5C267.775 61.5 265.975 67.3 266.325 71.2L264.725 71.2L264.725 65.15C264.825 63.55 264.325 62.7 262.775 62.75" fill="#ffffff" fill-rule="nonzero" opacity="1" stroke="none" vectornator:layerName="path"/>
<path d="M270.425 68.85C270.325 70.05 271.325 70.3 272.325 69.95L272.325 71.15C270.675 71.65 268.825 71.4 268.825 69.2L268.825 62.85L267.725 62.85L267.725 61.7L268.925 61.7L269.375 59.55L270.425 59.55L270.425 61.7L272.175 61.7L272.175 62.85L270.425 62.85L270.425 68.85" fill="#ffffff" fill-rule="nonzero" opacity="1" stroke="none" vectornator:layerName="path"/>
<path d="M277.275 62.75C275.275 62.75 274.875 64.4 274.875 66.4C274.875 68.4 275.325 70.15 277.275 70.15C278.475 70.15 279.325 69.45 279.425 68.25L281.025 68.35C280.725 70.2 279.475 71.4 277.325 71.4C274.375 71.4 273.525 69.35 273.225 66.45C272.725 61.8 278.275 59.9 280.575 63.25C280.775 63.6 280.825 63.95 280.925 64.35L279.325 64.5C279.125 63.45 278.525 62.75 277.275 62.75" fill="#ffffff" fill-rule="nonzero" opacity="1" stroke="none" vectornator:layerName="path"/>
<path d="M286.475 61.5C289.575 61.45 290.725 63.35 290.725 66.45C290.775 69.6 289.375 71.4 286.425 71.4C283.475 71.4 282.275 69.45 282.225 66.45C282.225 63.15 283.625 61.5 286.475 61.5ZM286.425 70.2C288.625 70.25 289.075 68.65 289.075 66.45C289.075 64.3 288.675 62.7 286.525 62.7C284.375 62.7 283.875 64.3 283.875 66.45C283.875 68.6 284.375 70.15 286.425 70.2" fill="#ffffff" fill-rule="nonzero" opacity="1" stroke="none" vectornator:layerName="path"/>
<path d="M296.875 71.2L294.975 71.2L291.525 61.7L293.225 61.7L295.925 69.95L298.725 61.7L300.425 61.7" fill="#ffffff" fill-rule="nonzero" opacity="1" stroke="none" vectornator:layerName="path"/>
<path d="M305.475 61.5C308.625 61.5 309.775 63.6 309.675 66.8L302.925 66.8C302.925 68.8 303.625 70.15 305.575 70.2C306.875 70.25 307.725 69.6 308.025 68.75L309.425 69.15C308.875 70.55 307.575 71.4 305.575 71.4C302.675 71.4 301.175 69.55 301.225 66.4C301.275 63.35 302.525 61.5 305.475 61.5ZM308.075 65.55C308.375 62.55 304.275 61.7 303.225 64.15C303.075 64.5 302.925 65 302.925 65.55L308.075 65.55" fill="#ffffff" fill-rule="nonzero" opacity="1" stroke="none" vectornator:layerName="path"/>
</g>
<g opacity="1" vectornator:layerName="f">
<path d="M320.275 62.75C318.275 62.75 317.875 64.4 317.875 66.4C317.875 68.4 318.325 70.15 320.275 70.15C321.475 70.15 322.325 69.45 322.425 68.25L324.025 68.35C323.725 70.2 322.475 71.4 320.325 71.4C317.375 71.4 316.525 69.35 316.225 66.45C315.725 61.8 321.275 59.9 323.575 63.25C323.775 63.6 323.825 63.95 323.925 64.35L322.325 64.5C322.125 63.45 321.525 62.75 320.275 62.75" fill="#ffffff" fill-rule="nonzero" opacity="1" stroke="none" vectornator:layerName="path"/>
<path d="M330.175 63.05C326.275 62.25 327.525 67.6 327.325 71.2L325.725 71.2L325.675 61.7L327.175 61.7C327.225 62.3 327.125 63.15 327.275 63.65C327.575 62.3 328.425 61.2 330.175 61.6L330.175 63.05" fill="#ffffff" fill-rule="nonzero" opacity="1" stroke="none" vectornator:layerName="path"/>
<path d="M335.425 61.5C338.575 61.5 339.725 63.6 339.625 66.8L332.875 66.8C332.875 68.8 333.575 70.15 335.525 70.2C336.825 70.25 337.675 69.6 337.975 68.75L339.375 69.15C338.825 70.55 337.525 71.4 335.525 71.4C332.625 71.4 331.125 69.55 331.175 66.4C331.225 63.35 332.475 61.5 335.425 61.5ZM338.025 65.55C338.325 62.55 334.225 61.7 333.175 64.15C333.025 64.5 332.875 65 332.875 65.55L338.025 65.55" fill="#ffffff" fill-rule="nonzero" opacity="1" stroke="none" vectornator:layerName="path"/>
<path d="M347.475 69.4C346.725 70.45 345.925 71.45 344.075 71.4C342.275 71.35 341.175 70.35 341.175 68.55C341.125 65.35 344.325 65.4 347.425 65.4C347.575 63.65 346.975 62.7 345.375 62.7C344.175 62.75 343.325 63.05 343.275 64.25L341.625 64.1C341.875 62.25 343.275 61.5 345.425 61.5C347.675 61.5 349.025 62.5 349.025 64.7L349.025 68.8C348.975 69.8 349.375 70.4 350.425 70.15L350.425 71.15C348.875 71.6 347.375 71.05 347.475 69.4ZM342.825 68.55C342.825 69.55 343.425 70.2 344.425 70.2C346.475 70.05 347.575 68.75 347.425 66.5C345.275 66.6 342.825 66.25 342.825 68.55" fill="#ffffff" fill-rule="nonzero" opacity="1" stroke="none" vectornator:layerName="path"/>
<path d="M353.375 68.85C353.275 70.05 354.275 70.3 355.275 69.95L355.275 71.15C353.625 71.65 351.775 71.4 351.775 69.2L351.775 62.85L350.675 62.85L350.675 61.7L351.875 61.7L352.325 59.55L353.375 59.55L353.375 61.7L355.125 61.7L355.125 62.85L353.375 62.85L353.375 68.85" fill="#ffffff" fill-rule="nonzero" opacity="1" stroke="none" vectornator:layerName="path"/>
<path d="M360.425 61.5C363.575 61.5 364.725 63.6 364.625 66.8L357.875 66.8C357.875 68.8 358.575 70.15 360.525 70.2C361.825 70.25 362.675 69.6 362.975 68.75L364.375 69.15C363.825 70.55 362.525 71.4 360.525 71.4C357.625 71.4 356.125 69.55 356.175 66.4C356.225 63.35 357.475 61.5 360.425 61.5ZM363.025 65.55C363.325 62.55 359.225 61.7 358.175 64.15C358.025 64.5 357.875 65 357.875 65.55L363.025 65.55" fill="#ffffff" fill-rule="nonzero" opacity="1" stroke="none" vectornator:layerName="path"/>
<path d="M372.175 64.05C372.025 62.35 367.875 62.15 367.825 64.05C368.575 66.7 373.575 64.65 373.775 68.55C373.975 72.45 366.275 72.25 365.925 68.95L367.325 68.7C367.525 70.5 372.175 70.95 372.225 68.7C371.725 65.9 366.575 67.95 366.325 64.2C366.125 61.35 370.425 61.05 372.425 62.1C373.025 62.45 373.475 63.05 373.625 63.85" fill="#ffffff" fill-rule="nonzero" opacity="1" stroke="none" vectornator:layerName="path"/>
</g>
<g opacity="1" vectornator:layerName="g">
<path d="M258.75 84.65C254.85 83.85 256.1 89.2 255.9 92.8L254.3 92.8L254.25 83.3L255.75 83.3C255.8 83.9 255.7 84.75 255.85 85.25C256.15 83.9 257 82.8 258.75 83.2L258.75 84.65" fill="#ffffff" fill-rule="nonzero" opacity="1" stroke="none" vectornator:layerName="path"/>
<path d="M264 83.1C267.15 83.1 268.3 85.2 268.2 88.4L261.45 88.4C261.45 90.4 262.15 91.75 264.1 91.8C265.4 91.85 266.25 91.2 266.55 90.35L267.95 90.75C267.4 92.15 266.1 93 264.1 93C261.2 93 259.7 91.15 259.75 88C259.8 84.95 261.05 83.1 264 83.1ZM266.6 87.15C266.9 84.15 262.8 83.3 261.75 85.75C261.6 86.1 261.45 86.6 261.45 87.15L266.6 87.15" fill="#ffffff" fill-rule="nonzero" opacity="1" stroke="none" vectornator:layerName="path"/>
<path d="M274.85 83.1C279.3 82.9 277.5 88.9 277.85 92.8L276.25 92.8L276.25 86.75C276.25 85.2 275.85 84.3 274.3 84.35C270.7 84.45 272.1 89.45 271.85 92.8L270.25 92.8L270.2 83.3L271.7 83.3C271.75 83.8 271.65 84.5 271.8 84.9C272.35 83.8 273.25 83.15 274.85 83.1" fill="#ffffff" fill-rule="nonzero" opacity="1" stroke="none" vectornator:layerName="path"/>
<path d="M283.25 83.1C284.8 83.1 285.65 83.75 286.25 84.75L286.2 79.75L287.8 79.75L287.85 92.8L286.35 92.8C286.25 92.3 286.35 91.65 286.2 91.25C285.7 92.4 284.8 93 283.25 93C280.6 93 279.8 91.05 279.75 88.1C279.75 84.8 280.9 83.1 283.25 83.1ZM283.7 84.3C281.7 84.3 281.4 86 281.4 88.05C281.4 90.05 281.7 91.75 283.65 91.75C285.75 91.75 286.2 90.15 286.2 87.95C286.2 85.85 285.75 84.25 283.7 84.3" fill="#ffffff" fill-rule="nonzero" opacity="1" stroke="none" vectornator:layerName="path"/>
<path d="M290.2 81.25L290.2 79.75L291.8 79.75L291.8 81.25L290.2 81.25ZM290.2 92.8L290.2 83.3L291.8 83.3L291.8 92.8L290.2 92.8" fill="#ffffff" fill-rule="nonzero" opacity="1" stroke="none" vectornator:layerName="path"/>
<path d="M295.9 90.45C295.8 91.65 296.8 91.9 297.8 91.55L297.8 92.75C296.15 93.25 294.3 93 294.3 90.8L294.3 84.45L293.2 84.45L293.2 83.3L294.4 83.3L294.85 81.15L295.9 81.15L295.9 83.3L297.65 83.3L297.65 84.45L295.9 84.45L295.9 90.45" fill="#ffffff" fill-rule="nonzero" opacity="1" stroke="none" vectornator:layerName="path"/>
<path d="M302.95 83.1C306.05 83.05 307.2 84.95 307.2 88.05C307.25 91.2 305.85 93 302.9 93C299.95 93 298.75 91.05 298.7 88.05C298.7 84.75 300.1 83.1 302.95 83.1ZM302.9 91.8C305.1 91.85 305.55 90.25 305.55 88.05C305.55 85.9 305.15 84.3 303 84.3C300.85 84.3 300.35 85.9 300.35 88.05C300.35 90.2 300.85 91.75 302.9 91.8" fill="#ffffff" fill-rule="nonzero" opacity="1" stroke="none" vectornator:layerName="path"/>
<path d="M313.8 83.1C318.25 82.9 316.45 88.9 316.8 92.8L315.2 92.8L315.2 86.75C315.2 85.2 314.8 84.3 313.25 84.35C309.65 84.45 311.05 89.45 310.8 92.8L309.2 92.8L309.15 83.3L310.65 83.3C310.7 83.8 310.6 84.5 310.75 84.9C311.3 83.8 312.2 83.15 313.8 83.1" fill="#ffffff" fill-rule="nonzero" opacity="1" stroke="none" vectornator:layerName="path"/>
<path d="M324.7 85.65C324.55 83.95 320.4 83.75 320.35 85.65C321.1 88.3 326.1 86.25 326.3 90.15C326.5 94.05 318.8 93.85 318.45 90.55L319.85 90.3C320.05 92.1 324.7 92.55 324.75 90.3C324.25 87.5 319.1 89.55 318.85 85.8C318.65 82.95 322.95 82.65 324.95 83.7C325.55 84.05 326 84.65 326.15 85.45" fill="#ffffff" fill-rule="nonzero" opacity="1" stroke="none" vectornator:layerName="path"/>
</g>
<g opacity="1" vectornator:layerName="h">
<path d="M334.9 90.45C334.8 91.65 335.8 91.9 336.8 91.55L336.8 92.75C335.15 93.25 333.3 93 333.3 90.8L333.3 84.45L332.2 84.45L332.2 83.3L333.4 83.3L333.85 81.15L334.9 81.15L334.9 83.3L336.65 83.3L336.65 84.45L334.9 84.45L334.9 90.45" fill="#ffffff" fill-rule="nonzero" opacity="1" stroke="none" vectornator:layerName="path"/>
<path d="M341.95 83.1C345.05 83.05 346.2 84.95 346.2 88.05C346.25 91.2 344.85 93 341.9 93C338.95 93 337.75 91.05 337.7 88.05C337.7 84.75 339.1 83.1 341.95 83.1ZM341.9 91.8C344.1 91.85 344.55 90.25 344.55 88.05C344.55 85.9 344.15 84.3 342 84.3C339.85 84.3 339.35 85.9 339.35 88.05C339.35 90.2 339.85 91.75 341.9 91.8" fill="#ffffff" fill-rule="nonzero" opacity="1" stroke="none" vectornator:layerName="path"/>
</g>
<g opacity="1" vectornator:layerName="i">
<path d="M241.4 107.25C241.25 105.55 237.1 105.35 237.05 107.25C237.8 109.9 242.8 107.85 243 111.75C243.2 115.65 235.5 115.45 235.15 112.15L236.55 111.9C236.75 113.7 241.4 114.15 241.45 111.9C240.95 109.1 235.8 111.15 235.55 107.4C235.35 104.55 239.65 104.25 241.65 105.3C242.25 105.65 242.7 106.25 242.85 107.05" fill="#ffffff" fill-rule="nonzero" opacity="1" stroke="none" vectornator:layerName="path"/>
<path d="M247.85 114.6C243.4 114.8 245.15 108.8 244.8 104.9L246.4 104.9L246.4 110.9C246.4 112.45 246.75 113.4 248.35 113.35C251.95 113.25 250.6 108.3 250.85 104.9L252.4 104.9L252.45 114.4L250.95 114.4C250.9 113.9 251 113.15 250.85 112.75C250.3 113.85 249.45 114.55 247.85 114.6" fill="#ffffff" fill-rule="nonzero" opacity="1" stroke="none" vectornator:layerName="path"/>
<path d="M259.4 104.7C262.15 104.75 262.9 106.75 262.9 109.6C262.9 112.45 262.1 114.5 259.4 114.6C257.85 114.6 256.95 113.95 256.4 112.9L256.45 118.15L254.85 118.15L254.8 104.9L256.35 104.9L256.45 106.4C256.95 105.35 257.85 104.7 259.4 104.7ZM259 113.4C261 113.4 261.25 111.7 261.25 109.65C261.25 107.6 260.95 106 259 105.95C256.9 105.95 256.45 107.55 256.45 109.75C256.45 111.9 256.95 113.4 259 113.4" fill="#ffffff" fill-rule="nonzero" opacity="1" stroke="none" vectornator:layerName="path"/>
<path d="M269.4 104.7C272.15 104.75 272.9 106.75 272.9 109.6C272.9 112.45 272.1 114.5 269.4 114.6C267.85 114.6 266.95 113.95 266.4 112.9L266.45 118.15L264.85 118.15L264.8 104.9L266.35 104.9L266.45 106.4C266.95 105.35 267.85 104.7 269.4 104.7ZM269 113.4C271 113.4 271.25 111.7 271.25 109.65C271.25 107.6 270.95 106 269 105.95C266.9 105.95 266.45 107.55 266.45 109.75C266.45 111.9 266.95 113.4 269 113.4" fill="#ffffff" fill-rule="nonzero" opacity="1" stroke="none" vectornator:layerName="path"/>
<path d="M278.65 104.7C281.75 104.65 282.9 106.55 282.9 109.65C282.95 112.8 281.55 114.6 278.6 114.6C275.65 114.6 274.45 112.65 274.4 109.65C274.4 106.35 275.8 104.7 278.65 104.7ZM278.6 113.4C280.8 113.45 281.25 111.85 281.25 109.65C281.25 107.5 280.85 105.9 278.7 105.9C276.55 105.9 276.05 107.5 276.05 109.65C276.05 111.8 276.55 113.35 278.6 113.4" fill="#ffffff" fill-rule="nonzero" opacity="1" stroke="none" vectornator:layerName="path"/>
<path d="M289.35 106.25C285.45 105.45 286.7 110.8 286.5 114.4L284.9 114.4L284.85 104.9L286.35 104.9C286.4 105.5 286.3 106.35 286.45 106.85C286.75 105.5 287.6 104.4 289.35 104.8L289.35 106.25" fill="#ffffff" fill-rule="nonzero" opacity="1" stroke="none" vectornator:layerName="path"/>
<path d="M292.55 112.05C292.45 113.25 293.45 113.5 294.45 113.15L294.45 114.35C292.8 114.85 290.95 114.6 290.95 112.4L290.95 106.05L289.85 106.05L289.85 104.9L291.05 104.9L291.5 102.75L292.55 102.75L292.55 104.9L294.3 104.9L294.3 106.05L292.55 106.05L292.55 112.05" fill="#ffffff" fill-rule="nonzero" opacity="1" stroke="none" vectornator:layerName="path"/>
</g>
<g opacity="1" vectornator:layerName="j">
<path d="M310.1 105.95C306.75 106.1 308.2 111.2 307.9 114.4L306.35 114.4L306.35 108.35C306.35 106.9 306.1 105.85 304.6 105.95C301.3 106.15 302.7 111.15 302.4 114.4L300.85 114.4L300.8 104.9L302.3 104.9C302.35 105.4 302.25 106.1 302.4 106.5C302.9 104.3 307.35 104 307.75 106.5C308.3 105.45 309.1 104.75 310.65 104.7C314.9 104.6 313 110.65 313.4 114.4L311.85 114.4L311.85 108.35C311.85 106.9 311.6 105.9 310.1 105.95" fill="#ffffff" fill-rule="nonzero" opacity="1" stroke="none" vectornator:layerName="path"/>
<path d="M318.75 114.6C314.3 114.8 316.05 108.8 315.7 104.9L317.3 104.9L317.3 110.9C317.3 112.45 317.65 113.4 319.25 113.35C322.85 113.25 321.5 108.3 321.75 104.9L323.3 104.9L323.35 114.4L321.85 114.4C321.8 113.9 321.9 113.15 321.75 112.75C321.2 113.85 320.35 114.55 318.75 114.6" fill="#ffffff" fill-rule="nonzero" opacity="1" stroke="none" vectornator:layerName="path"/>
<path d="M325.75 114.4L325.75 101.35L327.35 101.35L327.35 114.4L325.75 114.4" fill="#ffffff" fill-rule="nonzero" opacity="1" stroke="none" vectornator:layerName="path"/>
<path d="M331.45 112.05C331.35 113.25 332.35 113.5 333.35 113.15L333.35 114.35C331.7 114.85 329.85 114.6 329.85 112.4L329.85 106.05L328.75 106.05L328.75 104.9L329.95 104.9L330.4 102.75L331.45 102.75L331.45 104.9L333.2 104.9L333.2 106.05L331.45 106.05L331.45 112.05" fill="#ffffff" fill-rule="nonzero" opacity="1" stroke="none" vectornator:layerName="path"/>
<path d="M334.7 102.85L334.7 101.35L336.3 101.35L336.3 102.85L334.7 102.85ZM334.7 114.4L334.7 104.9L336.3 104.9L336.3 114.4L334.7 114.4" fill="#ffffff" fill-rule="nonzero" opacity="1" stroke="none" vectornator:layerName="path"/>
<path d="M338.65 102.85L338.65 101.35L340.25 101.35L340.25 102.85L338.65 102.85ZM338.65 114.4L338.65 104.9L340.25 104.9L340.25 114.4L338.65 114.4" fill="#ffffff" fill-rule="nonzero" opacity="1" stroke="none" vectornator:layerName="path"/>
<path d="M347.15 104.7C349.9 104.75 350.65 106.75 350.65 109.6C350.65 112.45 349.85 114.5 347.15 114.6C345.6 114.6 344.7 113.95 344.15 112.9L344.2 118.15L342.6 118.15L342.55 104.9L344.1 104.9L344.2 106.4C344.7 105.35 345.6 104.7 347.15 104.7ZM346.75 113.4C348.75 113.4 349 111.7 349 109.65C349 107.6 348.7 106 346.75 105.95C344.65 105.95 344.2 107.55 344.2 109.75C344.2 111.9 344.7 113.4 346.75 113.4" fill="#ffffff" fill-rule="nonzero" opacity="1" stroke="none" vectornator:layerName="path"/>
<path d="M352.6 114.4L352.6 101.35L354.2 101.35L354.2 114.4L352.6 114.4" fill="#ffffff" fill-rule="nonzero" opacity="1" stroke="none" vectornator:layerName="path"/>
<path d="M360.35 104.7C363.5 104.7 364.65 106.8 364.55 110L357.8 110C357.8 112 358.5 113.35 360.45 113.4C361.75 113.45 362.6 112.8 362.9 111.95L364.3 112.35C363.75 113.75 362.45 114.6 360.45 114.6C357.55 114.6 356.05 112.75 356.1 109.6C356.15 106.55 357.4 104.7 360.35 104.7ZM362.95 108.75C363.25 105.75 359.15 104.9 358.1 107.35C357.95 107.7 357.8 108.2 357.8 108.75L362.95 108.75" fill="#ffffff" fill-rule="nonzero" opacity="1" stroke="none" vectornator:layerName="path"/>
</g>
<g opacity="1" vectornator:layerName="k">
<path d="M273.775 126.3C275.325 126.3 276.175 126.95 276.775 127.95L276.725 122.95L278.325 122.95L278.375 136L276.875 136C276.775 135.5 276.875 134.85 276.725 134.45C276.225 135.6 275.325 136.2 273.775 136.2C271.125 136.2 270.325 134.25 270.275 131.3C270.275 128 271.425 126.3 273.775 126.3ZM274.225 127.5C272.225 127.5 271.925 129.2 271.925 131.25C271.925 133.25 272.225 134.95 274.175 134.95C276.275 134.95 276.725 133.35 276.725 131.15C276.725 129.05 276.275 127.45 274.225 127.5" fill="#ffffff" fill-rule="nonzero" opacity="1" stroke="none" vectornator:layerName="path"/>
<path d="M284.525 126.3C287.675 126.3 288.825 128.4 288.725 131.6L281.975 131.6C281.975 133.6 282.675 134.95 284.625 135C285.925 135.05 286.775 134.4 287.075 133.55L288.475 133.95C287.925 135.35 286.625 136.2 284.625 136.2C281.725 136.2 280.225 134.35 280.275 131.2C280.325 128.15 281.575 126.3 284.525 126.3ZM287.125 130.35C287.425 127.35 283.325 126.5 282.275 128.95C282.125 129.3 281.975 129.8 281.975 130.35L287.125 130.35" fill="#ffffff" fill-rule="nonzero" opacity="1" stroke="none" vectornator:layerName="path"/>
<path d="M294.925 136L293.025 136L289.575 126.5L291.275 126.5L293.975 134.75L296.775 126.5L298.475 126.5" fill="#ffffff" fill-rule="nonzero" opacity="1" stroke="none" vectornator:layerName="path"/>
<path d="M299.725 124.45L299.725 122.95L301.325 122.95L301.325 124.45L299.725 124.45ZM299.725 136L299.725 126.5L301.325 126.5L301.325 136L299.725 136" fill="#ffffff" fill-rule="nonzero" opacity="1" stroke="none" vectornator:layerName="path"/>
<path d="M307.275 127.55C305.275 127.55 304.875 129.2 304.875 131.2C304.875 133.2 305.325 134.95 307.275 134.95C308.475 134.95 309.325 134.25 309.425 133.05L311.025 133.15C310.725 135 309.475 136.2 307.325 136.2C304.375 136.2 303.525 134.15 303.225 131.25C302.725 126.6 308.275 124.7 310.575 128.05C310.775 128.4 310.825 128.75 310.925 129.15L309.325 129.3C309.125 128.25 308.525 127.55 307.275 127.55" fill="#ffffff" fill-rule="nonzero" opacity="1" stroke="none" vectornator:layerName="path"/>
<path d="M316.475 126.3C319.625 126.3 320.775 128.4 320.675 131.6L313.925 131.6C313.925 133.6 314.625 134.95 316.575 135C317.875 135.05 318.725 134.4 319.025 133.55L320.425 133.95C319.875 135.35 318.575 136.2 316.575 136.2C313.675 136.2 312.175 134.35 312.225 131.2C312.275 128.15 313.525 126.3 316.475 126.3ZM319.075 130.35C319.375 127.35 315.275 126.5 314.225 128.95C314.075 129.3 313.925 129.8 313.925 130.35L319.075 130.35" fill="#ffffff" fill-rule="nonzero" opacity="1" stroke="none" vectornator:layerName="path"/>
<path d="M328.225 128.85C328.075 127.15 323.925 126.95 323.875 128.85C324.625 131.5 329.625 129.45 329.825 133.35C330.025 137.25 322.325 137.05 321.975 133.75L323.375 133.5C323.575 135.3 328.225 135.75 328.275 133.5C327.775 130.7 322.625 132.75 322.375 129C322.175 126.15 326.475 125.85 328.475 126.9C329.075 127.25 329.525 127.85 329.675 128.65" fill="#ffffff" fill-rule="nonzero" opacity="1" stroke="none" vectornator:layerName="path"/>
</g>
<path d="M180.5 100L203.62 100" fill="none" opacity="1" stroke="#333333" stroke-linecap="butt" stroke-linejoin="miter" stroke-width="1" vectornator:layerName="path"/>
<path d="M180.5 100.5L179.97 100.5L180 100L179.98 99.5L180.51 99.5L180.5 100.5Z" fill="#333333" fill-rule="nonzero" opacity="1" stroke="#333333" stroke-linecap="butt" stroke-linejoin="miter" stroke-width="0.05" vectornator:layerName="path"/>
<path d="M218.38 100L204.12 104.63L204.12 95.37L218.38 100Z" fill="#333333" fill-rule="nonzero" opacity="1" stroke="#333333" stroke-linecap="butt" stroke-linejoin="miter" stroke-width="1" vectornator:layerName="path"/>
<path d="M380.5 100L423.62 100" fill="none" opacity="1" stroke="#333333" stroke-linecap="butt" stroke-linejoin="miter" stroke-width="1" vectornator:layerName="path"/>
<path d="M380.5 100.5L380 100.5L380 99.5L380.5 99.5L380.5 100.5Z" fill="#333333" fill-rule="nonzero" opacity="1" stroke="#333333" stroke-linecap="butt" stroke-linejoin="miter" stroke-width="0.05" vectornator:layerName="path"/>
<path d="M438.38 100L424.12 104.63L424.12 95.37L438.38 100Z" fill="#333333" fill-rule="nonzero" opacity="1" stroke="#333333" stroke-linecap="butt" stroke-linejoin="miter" stroke-width="1" vectornator:layerName="path"/>
<path d="M440 28C440 23.5817 443.582 20 448 20L592 20C596.418 20 600 23.5817 600 28L600 172C600 176.418 596.418 180 592 180L448 180C443.582 180 440 176.418 440 172L440 28Z" fill="#d85656" fill-rule="nonzero" opacity="1" stroke="#000000" stroke-linecap="butt" stroke-linejoin="miter" stroke-opacity="0" stroke-width="2" vectornator:layerName="path"/>
<g opacity="1" vectornator:layerName="l">
<path d="M482.05 90.8L482.05 78.4L491.4 78.4L491.4 79.8L483.7 79.8L483.7 83.75L490.9 83.75L490.9 85.1L483.7 85.1L483.7 89.45L491.8 89.45L491.8 90.8L482.05 90.8" fill="#ffffff" fill-rule="nonzero" opacity="1" stroke="none" vectornator:layerName="path"/>
<path d="M496.8 81.1C498.35 81.1 499.2 81.75 499.8 82.75L499.75 77.75L501.35 77.75L501.4 90.8L499.9 90.8C499.8 90.3 499.9 89.65 499.75 89.25C499.25 90.4 498.35 91 496.8 91C494.15 91 493.35 89.05 493.3 86.1C493.3 82.8 494.45 81.1 496.8 81.1ZM497.25 82.3C495.25 82.3 494.95 84 494.95 86.05C494.95 88.05 495.25 89.75 497.2 89.75C499.3 89.75 499.75 88.15 499.75 85.95C499.75 83.85 499.3 82.25 497.25 82.3" fill="#ffffff" fill-rule="nonzero" opacity="1" stroke="none" vectornator:layerName="path"/>
<path d="M503.75 79.25L503.75 77.75L505.35 77.75L505.35 79.25L503.75 79.25ZM503.75 90.8L503.75 81.3L505.35 81.3L505.35 90.8L503.75 90.8" fill="#ffffff" fill-rule="nonzero" opacity="1" stroke="none" vectornator:layerName="path"/>
<path d="M509.45 88.45C509.35 89.65 510.35 89.9 511.35 89.55L511.35 90.75C509.7 91.25 507.85 91 507.85 88.8L507.85 82.45L506.75 82.45L506.75 81.3L507.95 81.3L508.4 79.15L509.45 79.15L509.45 81.3L511.2 81.3L511.2 82.45L509.45 82.45L509.45 88.45" fill="#ffffff" fill-rule="nonzero" opacity="1" stroke="none" vectornator:layerName="path"/>
</g>
<g opacity="1" vectornator:layerName="m">
<path d="M521.9 90.8L520 90.8L516.55 81.3L518.25 81.3L520.95 89.55L523.75 81.3L525.45 81.3" fill="#ffffff" fill-rule="nonzero" opacity="1" stroke="none" vectornator:layerName="path"/>
<path d="M526.7 79.25L526.7 77.75L528.3 77.75L528.3 79.25L526.7 79.25ZM526.7 90.8L526.7 81.3L528.3 81.3L528.3 90.8L526.7 90.8" fill="#ffffff" fill-rule="nonzero" opacity="1" stroke="none" vectornator:layerName="path"/>
<path d="M533.7 81.1C535.25 81.1 536.1 81.75 536.7 82.75L536.65 77.75L538.25 77.75L538.3 90.8L536.8 90.8C536.7 90.3 536.8 89.65 536.65 89.25C536.15 90.4 535.25 91 533.7 91C531.05 91 530.25 89.05 530.2 86.1C530.2 82.8 531.35 81.1 533.7 81.1ZM534.15 82.3C532.15 82.3 531.85 84 531.85 86.05C531.85 88.05 532.15 89.75 534.1 89.75C536.2 89.75 536.65 88.15 536.65 85.95C536.65 83.85 536.2 82.25 534.15 82.3" fill="#ffffff" fill-rule="nonzero" opacity="1" stroke="none" vectornator:layerName="path"/>
<path d="M544.45 81.1C547.6 81.1 548.75 83.2 548.65 86.4L541.9 86.4C541.9 88.4 542.6 89.75 544.55 89.8C545.85 89.85 546.7 89.2 547 88.35L548.4 88.75C547.85 90.15 546.55 91 544.55 91C541.65 91 540.15 89.15 540.2 86C540.25 82.95 541.5 81.1 544.45 81.1ZM547.05 85.15C547.35 82.15 543.25 81.3 542.2 83.75C542.05 84.1 541.9 84.6 541.9 85.15L547.05 85.15" fill="#ffffff" fill-rule="nonzero" opacity="1" stroke="none" vectornator:layerName="path"/>
<path d="M554.45 81.1C557.55 81.05 558.7 82.95 558.7 86.05C558.75 89.2 557.35 91 554.4 91C551.45 91 550.25 89.05 550.2 86.05C550.2 82.75 551.6 81.1 554.45 81.1ZM554.4 89.8C556.6 89.85 557.05 88.25 557.05 86.05C557.05 83.9 556.65 82.3 554.5 82.3C552.35 82.3 551.85 83.9 551.85 86.05C551.85 88.2 552.35 89.75 554.4 89.8" fill="#ffffff" fill-rule="nonzero" opacity="1" stroke="none" vectornator:layerName="path"/>
</g>
<g opacity="1" vectornator:layerName="n">
<path d="M493.025 106.617C489.675 106.767 491.125 111.867 490.825 115.067L489.275 115.067L489.275 109.017C489.275 107.567 489.025 106.517 487.525 106.617C484.225 106.817 485.625 111.817 485.325 115.067L483.775 115.067L483.725 105.567L485.225 105.567C485.275 106.067 485.175 106.767 485.325 107.167C485.825 104.967 490.275 104.667 490.675 107.167C491.225 106.117 492.025 105.417 493.575 105.367C497.825 105.267 495.925 111.317 496.325 115.067L494.775 115.067L494.775 109.017C494.775 107.567 494.525 106.567 493.025 106.617" fill="#ffffff" fill-rule="nonzero" opacity="1" stroke="none" vectornator:layerName="path"/>
<path d="M502.475 105.367C505.625 105.367 506.775 107.467 506.675 110.667L499.925 110.667C499.925 112.667 500.625 114.017 502.575 114.067C503.875 114.117 504.725 113.467 505.025 112.617L506.425 113.017C505.875 114.417 504.575 115.267 502.575 115.267C499.675 115.267 498.175 113.417 498.225 110.267C498.275 107.217 499.525 105.367 502.475 105.367ZM505.075 109.417C505.375 106.417 501.275 105.567 500.225 108.017C500.075 108.367 499.925 108.867 499.925 109.417L505.075 109.417" fill="#ffffff" fill-rule="nonzero" opacity="1" stroke="none" vectornator:layerName="path"/>
<path d="M510.425 112.717C510.325 113.917 511.325 114.167 512.325 113.817L512.325 115.017C510.675 115.517 508.825 115.267 508.825 113.067L508.825 106.717L507.725 106.717L507.725 105.567L508.925 105.567L509.375 103.417L510.425 103.417L510.425 105.567L512.175 105.567L512.175 106.717L510.425 106.717L510.425 112.717" fill="#ffffff" fill-rule="nonzero" opacity="1" stroke="none" vectornator:layerName="path"/>
<path d="M519.525 113.267C518.775 114.317 517.975 115.317 516.125 115.267C514.325 115.217 513.225 114.217 513.225 112.417C513.175 109.217 516.375 109.267 519.475 109.267C519.625 107.517 519.025 106.567 517.425 106.567C516.225 106.617 515.375 106.917 515.325 108.117L513.675 107.967C513.925 106.117 515.325 105.367 517.475 105.367C519.725 105.367 521.075 106.367 521.075 108.567L521.075 112.667C521.025 113.667 521.425 114.267 522.475 114.017L522.475 115.017C520.925 115.467 519.425 114.917 519.525 113.267ZM514.875 112.417C514.875 113.417 515.475 114.067 516.475 114.067C518.525 113.917 519.625 112.617 519.475 110.367C517.325 110.467 514.875 110.117 514.875 112.417" fill="#ffffff" fill-rule="nonzero" opacity="1" stroke="none" vectornator:layerName="path"/>
<path d="M526.725 105.367C528.275 105.367 529.125 106.017 529.725 107.017L529.675 102.017L531.275 102.017L531.325 115.067L529.825 115.067C529.725 114.567 529.825 113.917 529.675 113.517C529.175 114.667 528.275 115.267 526.725 115.267C524.075 115.267 523.275 113.317 523.225 110.367C523.225 107.067 524.375 105.367 526.725 105.367ZM527.175 106.567C525.175 106.567 524.875 108.267 524.875 110.317C524.875 112.317 525.175 114.017 527.125 114.017C529.225 114.017 529.675 112.417 529.675 110.217C529.675 108.117 529.225 106.517 527.175 106.567" fill="#ffffff" fill-rule="nonzero" opacity="1" stroke="none" vectornator:layerName="path"/>
<path d="M539.525 113.267C538.775 114.317 537.975 115.317 536.125 115.267C534.325 115.217 533.225 114.217 533.225 112.417C533.175 109.217 536.375 109.267 539.475 109.267C539.625 107.517 539.025 106.567 537.425 106.567C536.225 106.617 535.375 106.917 535.325 108.117L533.675 107.967C533.925 106.117 535.325 105.367 537.475 105.367C539.725 105.367 541.075 106.367 541.075 108.567L541.075 112.667C541.025 113.667 541.425 114.267 542.475 114.017L542.475 115.017C540.925 115.467 539.425 114.917 539.525 113.267ZM534.875 112.417C534.875 113.417 535.475 114.067 536.475 114.067C538.525 113.917 539.625 112.617 539.475 110.367C537.325 110.467 534.875 110.117 534.875 112.417" fill="#ffffff" fill-rule="nonzero" opacity="1" stroke="none" vectornator:layerName="path"/>
<path d="M545.425 112.717C545.325 113.917 546.325 114.167 547.325 113.817L547.325 115.017C545.675 115.517 543.825 115.267 543.825 113.067L543.825 106.717L542.725 106.717L542.725 105.567L543.925 105.567L544.375 103.417L545.425 103.417L545.425 105.567L547.175 105.567L547.175 106.717L545.425 106.717L545.425 112.717" fill="#ffffff" fill-rule="nonzero" opacity="1" stroke="none" vectornator:layerName="path"/>
<path d="M554.525 113.267C553.775 114.317 552.975 115.317 551.125 115.267C549.325 115.217 548.225 114.217 548.225 112.417C548.175 109.217 551.375 109.267 554.475 109.267C554.625 107.517 554.025 106.567 552.425 106.567C551.225 106.617 550.375 106.917 550.325 108.117L548.675 107.967C548.925 106.117 550.325 105.367 552.475 105.367C554.725 105.367 556.075 106.367 556.075 108.567L556.075 112.667C556.025 113.667 556.425 114.267 557.475 114.017L557.475 115.017C555.925 115.467 554.425 114.917 554.525 113.267ZM549.875 112.417C549.875 113.417 550.475 114.067 551.475 114.067C553.525 113.917 554.625 112.617 554.475 110.367C552.325 110.467 549.875 110.117 549.875 112.417" fill="#ffffff" fill-rule="nonzero" opacity="1" stroke="none" vectornator:layerName="path"/>
</g>
<path d="M660 28C660 23.5817 663.582 20 668 20L812 20C816.418 20 820 23.5817 820 28L820 172C820 176.418 816.418 180 812 180L668 180C663.582 180 660 176.418 660 172L660 28Z" fill="#d85656" fill-rule="nonzero" opacity="1" stroke="#000000" stroke-linecap="butt" stroke-linejoin="miter" stroke-opacity="0" stroke-width="2" vectornator:layerName="path"/>
<g opacity="1" vectornator:layerName="l">
<path d="M702.05 90.8L702.05 78.4L711.4 78.4L711.4 79.8L703.7 79.8L703.7 83.75L710.9 83.75L710.9 85.1L703.7 85.1L703.7 89.45L711.8 89.45L711.8 90.8L702.05 90.8" fill="#ffffff" fill-rule="nonzero" opacity="1" stroke="none" vectornator:layerName="path"/>
<path d="M716.8 81.1C718.35 81.1 719.2 81.75 719.8 82.75L719.75 77.75L721.35 77.75L721.4 90.8L719.9 90.8C719.8 90.3 719.9 89.65 719.75 89.25C719.25 90.4 718.35 91 716.8 91C714.15 91 713.35 89.05 713.3 86.1C713.3 82.8 714.45 81.1 716.8 81.1ZM717.25 82.3C715.25 82.3 714.95 84 714.95 86.05C714.95 88.05 715.25 89.75 717.2 89.75C719.3 89.75 719.75 88.15 719.75 85.95C719.75 83.85 719.3 82.25 717.25 82.3" fill="#ffffff" fill-rule="nonzero" opacity="1" stroke="none" vectornator:layerName="path"/>
<path d="M723.75 79.25L723.75 77.75L725.35 77.75L725.35 79.25L723.75 79.25ZM723.75 90.8L723.75 81.3L725.35 81.3L725.35 90.8L723.75 90.8" fill="#ffffff" fill-rule="nonzero" opacity="1" stroke="none" vectornator:layerName="path"/>
<path d="M729.45 88.45C729.35 89.65 730.35 89.9 731.35 89.55L731.35 90.75C729.7 91.25 727.85 91 727.85 88.8L727.85 82.45L726.75 82.45L726.75 81.3L727.95 81.3L728.4 79.15L729.45 79.15L729.45 81.3L731.2 81.3L731.2 82.45L729.45 82.45L729.45 88.45" fill="#ffffff" fill-rule="nonzero" opacity="1" stroke="none" vectornator:layerName="path"/>
</g>
<g opacity="1" vectornator:layerName="m">
<path d="M741.9 90.8L740 90.8L736.55 81.3L738.25 81.3L740.95 89.55L743.75 81.3L745.45 81.3" fill="#ffffff" fill-rule="nonzero" opacity="1" stroke="none" vectornator:layerName="path"/>
<path d="M746.7 79.25L746.7 77.75L748.3 77.75L748.3 79.25L746.7 79.25ZM746.7 90.8L746.7 81.3L748.3 81.3L748.3 90.8L746.7 90.8" fill="#ffffff" fill-rule="nonzero" opacity="1" stroke="none" vectornator:layerName="path"/>
<path d="M753.7 81.1C755.25 81.1 756.1 81.75 756.7 82.75L756.65 77.75L758.25 77.75L758.3 90.8L756.8 90.8C756.7 90.3 756.8 89.65 756.65 89.25C756.15 90.4 755.25 91 753.7 91C751.05 91 750.25 89.05 750.2 86.1C750.2 82.8 751.35 81.1 753.7 81.1ZM754.15 82.3C752.15 82.3 751.85 84 751.85 86.05C751.85 88.05 752.15 89.75 754.1 89.75C756.2 89.75 756.65 88.15 756.65 85.95C756.65 83.85 756.2 82.25 754.15 82.3" fill="#ffffff" fill-rule="nonzero" opacity="1" stroke="none" vectornator:layerName="path"/>
<path d="M764.45 81.1C767.6 81.1 768.75 83.2 768.65 86.4L761.9 86.4C761.9 88.4 762.6 89.75 764.55 89.8C765.85 89.85 766.7 89.2 767 88.35L768.4 88.75C767.85 90.15 766.55 91 764.55 91C761.65 91 760.15 89.15 760.2 86C760.25 82.95 761.5 81.1 764.45 81.1ZM767.05 85.15C767.35 82.15 763.25 81.3 762.2 83.75C762.05 84.1 761.9 84.6 761.9 85.15L767.05 85.15" fill="#ffffff" fill-rule="nonzero" opacity="1" stroke="none" vectornator:layerName="path"/>
<path d="M774.45 81.1C777.55 81.05 778.7 82.95 778.7 86.05C778.75 89.2 777.35 91 774.4 91C771.45 91 770.25 89.05 770.2 86.05C770.2 82.75 771.6 81.1 774.45 81.1ZM774.4 89.8C776.6 89.85 777.05 88.25 777.05 86.05C777.05 83.9 776.65 82.3 774.5 82.3C772.35 82.3 771.85 83.9 771.85 86.05C771.85 88.2 772.35 89.75 774.4 89.8" fill="#ffffff" fill-rule="nonzero" opacity="1" stroke="none" vectornator:layerName="path"/>
</g>
<g opacity="1" vectornator:layerName="n">
<path d="M713.025 106.617C709.675 106.767 711.125 111.867 710.825 115.067L709.275 115.067L709.275 109.017C709.275 107.567 709.025 106.517 707.525 106.617C704.225 106.817 705.625 111.817 705.325 115.067L703.775 115.067L703.725 105.567L705.225 105.567C705.275 106.067 705.175 106.767 705.325 107.167C705.825 104.967 710.275 104.667 710.675 107.167C711.225 106.117 712.025 105.417 713.575 105.367C717.825 105.267 715.925 111.317 716.325 115.067L714.775 115.067L714.775 109.017C714.775 107.567 714.525 106.567 713.025 106.617" fill="#ffffff" fill-rule="nonzero" opacity="1" stroke="none" vectornator:layerName="path"/>
<path d="M722.475 105.367C725.625 105.367 726.775 107.467 726.675 110.667L719.925 110.667C719.925 112.667 720.625 114.017 722.575 114.067C723.875 114.117 724.725 113.467 725.025 112.617L726.425 113.017C725.875 114.417 724.575 115.267 722.575 115.267C719.675 115.267 718.175 113.417 718.225 110.267C718.275 107.217 719.525 105.367 722.475 105.367ZM725.075 109.417C725.375 106.417 721.275 105.567 720.225 108.017C720.075 108.367 719.925 108.867 719.925 109.417L725.075 109.417" fill="#ffffff" fill-rule="nonzero" opacity="1" stroke="none" vectornator:layerName="path"/>
<path d="M730.425 112.717C730.325 113.917 731.325 114.167 732.325 113.817L732.325 115.017C730.675 115.517 728.825 115.267 728.825 113.067L728.825 106.717L727.725 106.717L727.725 105.567L728.925 105.567L729.375 103.417L730.425 103.417L730.425 105.567L732.175 105.567L732.175 106.717L730.425 106.717L730.425 112.717" fill="#ffffff" fill-rule="nonzero" opacity="1" stroke="none" vectornator:layerName="path"/>
<path d="M739.525 113.267C738.775 114.317 737.975 115.317 736.125 115.267C734.325 115.217 733.225 114.217 733.225 112.417C733.175 109.217 736.375 109.267 739.475 109.267C739.625 107.517 739.025 106.567 737.425 106.567C736.225 106.617 735.375 106.917 735.325 108.117L733.675 107.967C733.925 106.117 735.325 105.367 737.475 105.367C739.725 105.367 741.075 106.367 741.075 108.567L741.075 112.667C741.025 113.667 741.425 114.267 742.475 114.017L742.475 115.017C740.925 115.467 739.425 114.917 739.525 113.267ZM734.875 112.417C734.875 113.417 735.475 114.067 736.475 114.067C738.525 113.917 739.625 112.617 739.475 110.367C737.325 110.467 734.875 110.117 734.875 112.417" fill="#ffffff" fill-rule="nonzero" opacity="1" stroke="none" vectornator:layerName="path"/>
<path d="M746.725 105.367C748.275 105.367 749.125 106.017 749.725 107.017L749.675 102.017L751.275 102.017L751.325 115.067L749.825 115.067C749.725 114.567 749.825 113.917 749.675 113.517C749.175 114.667 748.275 115.267 746.725 115.267C744.075 115.267 743.275 113.317 743.225 110.367C743.225 107.067 744.375 105.367 746.725 105.367ZM747.175 106.567C745.175 106.567 744.875 108.267 744.875 110.317C744.875 112.317 745.175 114.017 747.125 114.017C749.225 114.017 749.675 112.417 749.675 110.217C749.675 108.117 749.225 106.517 747.175 106.567" fill="#ffffff" fill-rule="nonzero" opacity="1" stroke="none" vectornator:layerName="path"/>
<path d="M759.525 113.267C758.775 114.317 757.975 115.317 756.125 115.267C754.325 115.217 753.225 114.217 753.225 112.417C753.175 109.217 756.375 109.267 759.475 109.267C759.625 107.517 759.025 106.567 757.425 106.567C756.225 106.617 755.375 106.917 755.325 108.117L753.675 107.967C753.925 106.117 755.325 105.367 757.475 105.367C759.725 105.367 761.075 106.367 761.075 108.567L761.075 112.667C761.025 113.667 761.425 114.267 762.475 114.017L762.475 115.017C760.925 115.467 759.425 114.917 759.525 113.267ZM754.875 112.417C754.875 113.417 755.475 114.067 756.475 114.067C758.525 113.917 759.625 112.617 759.475 110.367C757.325 110.467 754.875 110.117 754.875 112.417" fill="#ffffff" fill-rule="nonzero" opacity="1" stroke="none" vectornator:layerName="path"/>
<path d="M765.425 112.717C765.325 113.917 766.325 114.167 767.325 113.817L767.325 115.017C765.675 115.517 763.825 115.267 763.825 113.067L763.825 106.717L762.725 106.717L762.725 105.567L763.925 105.567L764.375 103.417L765.425 103.417L765.425 105.567L767.175 105.567L767.175 106.717L765.425 106.717L765.425 112.717" fill="#ffffff" fill-rule="nonzero" opacity="1" stroke="none" vectornator:layerName="path"/>
<path d="M774.525 113.267C773.775 114.317 772.975 115.317 771.125 115.267C769.325 115.217 768.225 114.217 768.225 112.417C768.175 109.217 771.375 109.267 774.475 109.267C774.625 107.517 774.025 106.567 772.425 106.567C771.225 106.617 770.375 106.917 770.325 108.117L768.675 107.967C768.925 106.117 770.325 105.367 772.475 105.367C774.725 105.367 776.075 106.367 776.075 108.567L776.075 112.667C776.025 113.667 776.425 114.267 777.475 114.017L777.475 115.017C775.925 115.467 774.425 114.917 774.525 113.267ZM769.875 112.417C769.875 113.417 770.475 114.067 771.475 114.067C773.525 113.917 774.625 112.617 774.475 110.367C772.325 110.467 769.875 110.117 769.875 112.417" fill="#ffffff" fill-rule="nonzero" opacity="1" stroke="none" vectornator:layerName="path"/>
</g>
<path d="M600.5 100L643.62 100" fill="none" opacity="1" stroke="#333333" stroke-linecap="butt" stroke-linejoin="miter" stroke-width="1" vectornator:layerName="path"/>
<path d="M600.5 100.5L600 100.5L600 99.5L600.5 99.5L600.5 100.5Z" fill="#333333" fill-rule="nonzero" opacity="1" stroke="#333333" stroke-linecap="butt" stroke-linejoin="miter" stroke-width="0.05" vectornator:layerName="path"/>
<path d="M658.38 100L644.12 104.63L644.12 95.37L658.38 100Z" fill="#333333" fill-rule="nonzero" opacity="1" stroke="#333333" stroke-linecap="butt" stroke-linejoin="miter" stroke-width="1" vectornator:layerName="path"/>
<path d="M880 28C880 23.5817 883.582 20 888 20L1032 20C1036.42 20 1040 23.5817 1040 28L1040 172C1040 176.418 1036.42 180 1032 180L888 180C883.582 180 880 176.418 880 172L880 28Z" fill="#d85656" fill-rule="nonzero" opacity="1" stroke="#000000" stroke-linecap="butt" stroke-linejoin="miter" stroke-opacity="0" stroke-width="2" vectornator:layerName="path"/>
<g opacity="1" vectornator:layerName="g">
<g opacity="1" vectornator:layerName="e">
<path d="M899.05 64.65C900.8 64.9 902.1 65.8 902.1 67.7C902.1 72.05 896.8 71.1 892.55 71.2L892.55 58.8C896.35 58.95 901.4 57.95 901.4 61.8C901.4 63.45 900.45 64.3 899.05 64.65ZM894.2 64.1C896.7 64.05 899.7 64.55 899.7 62C899.7 59.65 896.55 60.2 894.2 60.15L894.2 64.1ZM894.2 69.85C896.95 69.75 900.4 70.55 900.4 67.6C900.4 64.8 896.9 65.5 894.2 65.4L894.2 69.85" fill="#ffffff" fill-rule="nonzero" opacity="1" stroke="none" vectornator:layerName="path"/>
<path d="M908.75 63.05C904.85 62.25 906.1 67.6 905.9 71.2L904.3 71.2L904.25 61.7L905.75 61.7C905.8 62.3 905.7 63.15 905.85 63.65C906.15 62.3 907 61.2 908.75 61.6L908.75 63.05" fill="#ffffff" fill-rule="nonzero" opacity="1" stroke="none" vectornator:layerName="path"/>
<path d="M910.2 59.65L910.2 58.15L911.8 58.15L911.8 59.65L910.2 59.65ZM910.2 71.2L910.2 61.7L911.8 61.7L911.8 71.2L910.2 71.2" fill="#ffffff" fill-rule="nonzero" opacity="1" stroke="none" vectornator:layerName="path"/>
<path d="M921.8 61.7C921.3 67.95 923.85 76.35 916.3 74.75C915.15 74.45 914.4 73.75 914.1 72.6L915.7 72.35C916.45 74.7 920.7 73.95 920.15 70.95L920.15 69.45C919.6 70.5 918.7 71.25 917.1 71.25C914.4 71.25 913.7 69.2 913.7 66.45C913.7 63.65 914.5 61.6 917.25 61.55C918.7 61.5 919.65 62.35 920.2 63.3C920.25 62.8 920.2 62.15 920.3 61.7L921.8 61.7ZM917.65 70.1C919.45 70.1 920.15 68.5 920.15 66.45C920.15 64.35 919.45 62.7 917.65 62.7C915.7 62.7 915.35 64.4 915.35 66.45C915.35 68.5 915.65 70.1 917.65 70.1" fill="#ffffff" fill-rule="nonzero" opacity="1" stroke="none" vectornator:layerName="path"/>
<path d="M928.25 62.75C924.65 62.75 926.05 67.85 925.8 71.2L924.2 71.2L924.2 58.15L925.8 58.15L925.75 63.3C926.35 62.25 927.15 61.5 928.8 61.5C933.25 61.5 931.45 67.3 931.8 71.2L930.2 71.2L930.2 65.15C930.3 63.55 929.8 62.7 928.25 62.75" fill="#ffffff" fill-rule="nonzero" opacity="1" stroke="none" vectornator:layerName="path"/>
<path d="M935.9 68.85C935.8 70.05 936.8 70.3 937.8 69.95L937.8 71.15C936.15 71.65 934.3 71.4 934.3 69.2L934.3 62.85L933.2 62.85L933.2 61.7L934.4 61.7L934.85 59.55L935.9 59.55L935.9 61.7L937.65 61.7L937.65 62.85L935.9 62.85L935.9 68.85" fill="#ffffff" fill-rule="nonzero" opacity="1" stroke="none" vectornator:layerName="path"/>
<path d="M942.75 62.75C940.75 62.75 940.35 64.4 940.35 66.4C940.35 68.4 940.8 70.15 942.75 70.15C943.95 70.15 944.8 69.45 944.9 68.25L946.5 68.35C946.2 70.2 944.95 71.4 942.8 71.4C939.85 71.4 939 69.35 938.7 66.45C938.2 61.8 943.75 59.9 946.05 63.25C946.25 63.6 946.3 63.95 946.4 64.35L944.8 64.5C944.6 63.45 944 62.75 942.75 62.75" fill="#ffffff" fill-rule="nonzero" opacity="1" stroke="none" vectornator:layerName="path"/>
<path d="M951.95 61.5C955.05 61.45 956.2 63.35 956.2 66.45C956.25 69.6 954.85 71.4 951.9 71.4C948.95 71.4 947.75 69.45 947.7 66.45C947.7 63.15 949.1 61.5 951.95 61.5ZM951.9 70.2C954.1 70.25 954.55 68.65 954.55 66.45C954.55 64.3 954.15 62.7 952 62.7C949.85 62.7 949.35 64.3 949.35 66.45C949.35 68.6 949.85 70.15 951.9 70.2" fill="#ffffff" fill-rule="nonzero" opacity="1" stroke="none" vectornator:layerName="path"/>
<path d="M962.35 71.2L960.45 71.2L957 61.7L958.7 61.7L961.4 69.95L964.2 61.7L965.9 61.7" fill="#ffffff" fill-rule="nonzero" opacity="1" stroke="none" vectornator:layerName="path"/>
<path d="M970.95 61.5C974.1 61.5 975.25 63.6 975.15 66.8L968.4 66.8C968.4 68.8 969.1 70.15 971.05 70.2C972.35 70.25 973.2 69.6 973.5 68.75L974.9 69.15C974.35 70.55 973.05 71.4 971.05 71.4C968.15 71.4 966.65 69.55 966.7 66.4C966.75 63.35 968 61.5 970.95 61.5ZM973.55 65.55C973.85 62.55 969.75 61.7 968.7 64.15C968.55 64.5 968.4 65 968.4 65.55L973.55 65.55" fill="#ffffff" fill-rule="nonzero" opacity="1" stroke="none" vectornator:layerName="path"/>
</g>
<g opacity="1" vectornator:layerName="o">
<path d="M987.7 64.05C987.55 62.35 983.4 62.15 983.35 64.05C984.1 66.7 989.1 64.65 989.3 68.55C989.5 72.45 981.8 72.25 981.45 68.95L982.85 68.7C983.05 70.5 987.7 70.95 987.75 68.7C987.25 65.9 982.1 67.95 981.85 64.2C981.65 61.35 985.95 61.05 987.95 62.1C988.55 62.45 989 63.05 989.15 63.85" fill="#ffffff" fill-rule="nonzero" opacity="1" stroke="none" vectornator:layerName="path"/>
<path d="M994.95 61.5C998.1 61.5 999.25 63.6 999.15 66.8L992.4 66.8C992.4 68.8 993.1 70.15 995.05 70.2C996.35 70.25 997.2 69.6 997.5 68.75L998.9 69.15C998.35 70.55 997.05 71.4 995.05 71.4C992.15 71.4 990.65 69.55 990.7 66.4C990.75 63.35 992 61.5 994.95 61.5ZM997.55 65.55C997.85 62.55 993.75 61.7 992.7 64.15C992.55 64.5 992.4 65 992.4 65.55L997.55 65.55" fill="#ffffff" fill-rule="nonzero" opacity="1" stroke="none" vectornator:layerName="path"/>
<path d="M1005.8 61.5C1010.25 61.3 1008.45 67.3 1008.8 71.2L1007.2 71.2L1007.2 65.15C1007.2 63.6 1006.8 62.7 1005.25 62.75C1001.65 62.85 1003.05 67.85 1002.8 71.2L1001.2 71.2L1001.15 61.7L1002.65 61.7C1002.7 62.2 1002.6 62.9 1002.75 63.3C1003.3 62.2 1004.2 61.55 1005.8 61.5" fill="#ffffff" fill-rule="nonzero" opacity="1" stroke="none" vectornator:layerName="path"/>
<path d="M1014.2 61.5C1015.75 61.5 1016.6 62.15 1017.2 63.15L1017.15 58.15L1018.75 58.15L1018.8 71.2L1017.3 71.2C1017.2 70.7 1017.3 70.05 1017.15 69.65C1016.65 70.8 1015.75 71.4 1014.2 71.4C1011.55 71.4 1010.75 69.45 1010.7 66.5C1010.7 63.2 1011.85 61.5 1014.2 61.5ZM1014.65 62.7C1012.65 62.7 1012.35 64.4 1012.35 66.45C1012.35 68.45 1012.65 70.15 1014.6 70.15C1016.7 70.15 1017.15 68.55 1017.15 66.35C1017.15 64.25 1016.7 62.65 1014.65 62.7" fill="#ffffff" fill-rule="nonzero" opacity="1" stroke="none" vectornator:layerName="path"/>
<path d="M1026.7 64.05C1026.55 62.35 1022.4 62.15 1022.35 64.05C1023.1 66.7 1028.1 64.65 1028.3 68.55C1028.5 72.45 1020.8 72.25 1020.45 68.95L1021.85 68.7C1022.05 70.5 1026.7 70.95 1026.75 68.7C1026.25 65.9 1021.1 67.95 1020.85 64.2C1020.65 61.35 1024.95 61.05 1026.95 62.1C1027.55 62.45 1028 63.05 1028.15 63.85" fill="#ffffff" fill-rule="nonzero" opacity="1" stroke="none" vectornator:layerName="path"/>
</g>
<g opacity="1" vectornator:layerName="p">
<path d="M929.425 92.8L927.525 92.8L924.075 83.3L925.775 83.3L928.475 91.55L931.275 83.3L932.975 83.3" fill="#ffffff" fill-rule="nonzero" opacity="1" stroke="none" vectornator:layerName="path"/>
<path d="M934.225 81.25L934.225 79.75L935.825 79.75L935.825 81.25L934.225 81.25ZM934.225 92.8L934.225 83.3L935.825 83.3L935.825 92.8L934.225 92.8" fill="#ffffff" fill-rule="nonzero" opacity="1" stroke="none" vectornator:layerName="path"/>
<path d="M941.225 83.1C942.775 83.1 943.625 83.75 944.225 84.75L944.175 79.75L945.775 79.75L945.825 92.8L944.325 92.8C944.225 92.3 944.325 91.65 944.175 91.25C943.675 92.4 942.775 93 941.225 93C938.575 93 937.775 91.05 937.725 88.1C937.725 84.8 938.875 83.1 941.225 83.1ZM941.675 84.3C939.675 84.3 939.375 86 939.375 88.05C939.375 90.05 939.675 91.75 941.625 91.75C943.725 91.75 944.175 90.15 944.175 87.95C944.175 85.85 943.725 84.25 941.675 84.3" fill="#ffffff" fill-rule="nonzero" opacity="1" stroke="none" vectornator:layerName="path"/>
<path d="M951.975 83.1C955.125 83.1 956.275 85.2 956.175 88.4L949.425 88.4C949.425 90.4 950.125 91.75 952.075 91.8C953.375 91.85 954.225 91.2 954.525 90.35L955.925 90.75C955.375 92.15 954.075 93 952.075 93C949.175 93 947.675 91.15 947.725 88C947.775 84.95 949.025 83.1 951.975 83.1ZM954.575 87.15C954.875 84.15 950.775 83.3 949.725 85.75C949.575 86.1 949.425 86.6 949.425 87.15L954.575 87.15" fill="#ffffff" fill-rule="nonzero" opacity="1" stroke="none" vectornator:layerName="path"/>
<path d="M961.975 83.1C965.075 83.05 966.225 84.95 966.225 88.05C966.275 91.2 964.875 93 961.925 93C958.975 93 957.775 91.05 957.725 88.05C957.725 84.75 959.125 83.1 961.975 83.1ZM961.925 91.8C964.125 91.85 964.575 90.25 964.575 88.05C964.575 85.9 964.175 84.3 962.025 84.3C959.875 84.3 959.375 85.9 959.375 88.05C959.375 90.2 959.875 91.75 961.925 91.8" fill="#ffffff" fill-rule="nonzero" opacity="1" stroke="none" vectornator:layerName="path"/>
<path d="M973.725 85.65C973.575 83.95 969.425 83.75 969.375 85.65C970.125 88.3 975.125 86.25 975.325 90.15C975.525 94.05 967.825 93.85 967.475 90.55L968.875 90.3C969.075 92.1 973.725 92.55 973.775 90.3C973.275 87.5 968.125 89.55 967.875 85.8C967.675 82.95 971.975 82.65 973.975 83.7C974.575 84.05 975.025 84.65 975.175 85.45" fill="#ffffff" fill-rule="nonzero" opacity="1" stroke="none" vectornator:layerName="path"/>
</g>
<g opacity="1" vectornator:layerName="h">
<path d="M983.925 90.45C983.825 91.65 984.825 91.9 985.825 91.55L985.825 92.75C984.175 93.25 982.325 93 982.325 90.8L982.325 84.45L981.225 84.45L981.225 83.3L982.425 83.3L982.875 81.15L983.925 81.15L983.925 83.3L985.675 83.3L985.675 84.45L983.925 84.45L983.925 90.45" fill="#ffffff" fill-rule="nonzero" opacity="1" stroke="none" vectornator:layerName="path"/>
<path d="M990.975 83.1C994.075 83.05 995.225 84.95 995.225 88.05C995.275 91.2 993.875 93 990.925 93C987.975 93 986.775 91.05 986.725 88.05C986.725 84.75 988.125 83.1 990.975 83.1ZM990.925 91.8C993.125 91.85 993.575 90.25 993.575 88.05C993.575 85.9 993.175 84.3 991.025 84.3C988.875 84.3 988.375 85.9 988.375 88.05C988.375 90.2 988.875 91.75 990.925 91.8" fill="#ffffff" fill-rule="nonzero" opacity="1" stroke="none" vectornator:layerName="path"/>
</g>
<g opacity="1" vectornator:layerName="q">
<path d="M896.725 103.4L896.725 108L903.625 108L903.625 109.4L896.725 109.4L896.725 114.4L895.075 114.4L895.075 102L903.825 102L903.825 103.4L896.725 103.4" fill="#ffffff" fill-rule="nonzero" opacity="1" stroke="none" vectornator:layerName="path"/>
<path d="M910.225 106.25C906.325 105.45 907.575 110.8 907.375 114.4L905.775 114.4L905.725 104.9L907.225 104.9C907.275 105.5 907.175 106.35 907.325 106.85C907.625 105.5 908.475 104.4 910.225 104.8L910.225 106.25" fill="#ffffff" fill-rule="nonzero" opacity="1" stroke="none" vectornator:layerName="path"/>
<path d="M915.475 104.7C918.625 104.7 919.775 106.8 919.675 110L912.925 110C912.925 112 913.625 113.35 915.575 113.4C916.875 113.45 917.725 112.8 918.025 111.95L919.425 112.35C918.875 113.75 917.575 114.6 915.575 114.6C912.675 114.6 911.175 112.75 911.225 109.6C911.275 106.55 912.525 104.7 915.475 104.7ZM918.075 108.75C918.375 105.75 914.275 104.9 913.225 107.35C913.075 107.7 912.925 108.2 912.925 108.75L918.075 108.75" fill="#ffffff" fill-rule="nonzero" opacity="1" stroke="none" vectornator:layerName="path"/>
<path d="M927.725 112.85C927.175 113.95 926.275 114.6 924.725 114.6C922.075 114.6 921.275 112.65 921.225 109.7C921.225 106.75 922.075 104.75 924.725 104.7C926.325 104.65 927.125 105.4 927.725 106.35C927.725 105.8 927.675 105.15 927.825 104.75L929.325 104.75L929.275 118.15L927.675 118.15L927.725 112.85ZM925.125 113.35C927.175 113.35 927.675 111.7 927.675 109.55C927.675 107.4 927.275 105.9 925.175 105.9C923.175 105.9 922.875 107.65 922.875 109.65C922.875 111.65 923.125 113.35 925.125 113.35" fill="#ffffff" fill-rule="nonzero" opacity="1" stroke="none" vectornator:layerName="path"/>
<path d="M934.675 114.6C930.225 114.8 931.975 108.8 931.625 104.9L933.225 104.9L933.225 110.9C933.225 112.45 933.575 113.4 935.175 113.35C938.775 113.25 937.425 108.3 937.675 104.9L939.225 104.9L939.275 114.4L937.775 114.4C937.725 113.9 937.825 113.15 937.675 112.75C937.125 113.85 936.275 114.55 934.675 114.6" fill="#ffffff" fill-rule="nonzero" opacity="1" stroke="none" vectornator:layerName="path"/>
<path d="M945.475 104.7C948.625 104.7 949.775 106.8 949.675 110L942.925 110C942.925 112 943.625 113.35 945.575 113.4C946.875 113.45 947.725 112.8 948.025 111.95L949.425 112.35C948.875 113.75 947.575 114.6 945.575 114.6C942.675 114.6 941.175 112.75 941.225 109.6C941.275 106.55 942.525 104.7 945.475 104.7ZM948.075 108.75C948.375 105.75 944.275 104.9 943.225 107.35C943.075 107.7 942.925 108.2 942.925 108.75L948.075 108.75" fill="#ffffff" fill-rule="nonzero" opacity="1" stroke="none" vectornator:layerName="path"/>
<path d="M956.325 104.7C960.775 104.5 958.975 110.5 959.325 114.4L957.725 114.4L957.725 108.35C957.725 106.8 957.325 105.9 955.775 105.95C952.175 106.05 953.575 111.05 953.325 114.4L951.725 114.4L951.675 104.9L953.175 104.9C953.225 105.4 953.125 106.1 953.275 106.5C953.825 105.4 954.725 104.75 956.325 104.7" fill="#ffffff" fill-rule="nonzero" opacity="1" stroke="none" vectornator:layerName="path"/>
<path d="M965.275 105.95C963.275 105.95 962.875 107.6 962.875 109.6C962.875 111.6 963.325 113.35 965.275 113.35C966.475 113.35 967.325 112.65 967.425 111.45L969.025 111.55C968.725 113.4 967.475 114.6 965.325 114.6C962.375 114.6 961.525 112.55 961.225 109.65C960.725 105 966.275 103.1 968.575 106.45C968.775 106.8 968.825 107.15 968.925 107.55L967.325 107.7C967.125 106.65 966.525 105.95 965.275 105.95" fill="#ffffff" fill-rule="nonzero" opacity="1" stroke="none" vectornator:layerName="path"/>
<path d="M978.425 104.9L974.125 115.95C973.425 117.35 972.275 118.5 970.075 118.05L970.075 116.85C972.025 117.15 972.725 115.85 973.275 114.35L969.525 104.9L971.225 104.9L974.075 112.7L976.775 104.9L978.425 104.9" fill="#ffffff" fill-rule="nonzero" opacity="1" stroke="none" vectornator:layerName="path"/>
</g>
<g opacity="1" vectornator:layerName="r">
<path d="M993.775 114.4L991.975 114.4L989.975 106.2L987.925 114.4L986.125 114.4L983.425 104.9L985.025 104.9L986.975 113.1L989.125 104.9L990.825 104.9L992.875 113.1L994.975 104.9L996.525 104.9" fill="#ffffff" fill-rule="nonzero" opacity="1" stroke="none" vectornator:layerName="path"/>
<path d="M1001.72 105.95C998.125 105.95 999.525 111.05 999.275 114.4L997.675 114.4L997.675 101.35L999.275 101.35L999.225 106.5C999.825 105.45 1000.62 104.7 1002.27 104.7C1006.72 104.7 1004.92 110.5 1005.27 114.4L1003.67 114.4L1003.67 108.35C1003.77 106.75 1003.27 105.9 1001.72 105.95" fill="#ffffff" fill-rule="nonzero" opacity="1" stroke="none" vectornator:layerName="path"/>
<path d="M1011.42 104.7C1014.57 104.7 1015.72 106.8 1015.62 110L1008.87 110C1008.87 112 1009.57 113.35 1011.52 113.4C1012.82 113.45 1013.67 112.8 1013.97 111.95L1015.37 112.35C1014.82 113.75 1013.52 114.6 1011.52 114.6C1008.62 114.6 1007.12 112.75 1007.17 109.6C1007.22 106.55 1008.47 104.7 1011.42 104.7ZM1014.02 108.75C1014.32 105.75 1010.22 104.9 1009.17 107.35C1009.02 107.7 1008.87 108.2 1008.87 108.75L1014.02 108.75" fill="#ffffff" fill-rule="nonzero" opacity="1" stroke="none" vectornator:layerName="path"/>
<path d="M1022.27 104.7C1026.72 104.5 1024.92 110.5 1025.27 114.4L1023.67 114.4L1023.67 108.35C1023.67 106.8 1023.27 105.9 1021.72 105.95C1018.12 106.05 1019.52 111.05 1019.27 114.4L1017.67 114.4L1017.62 104.9L1019.12 104.9C1019.17 105.4 1019.07 106.1 1019.22 106.5C1019.77 105.4 1020.67 104.75 1022.27 104.7" fill="#ffffff" fill-rule="nonzero" opacity="1" stroke="none" vectornator:layerName="path"/>
</g>
<g opacity="1" vectornator:layerName="s">
<path d="M919.8 126.5L915.5 137.55C914.8 138.95 913.65 140.1 911.45 139.65L911.45 138.45C913.4 138.75 914.1 137.45 914.65 135.95L910.9 126.5L912.6 126.5L915.45 134.3L918.15 126.5L919.8 126.5" fill="#ffffff" fill-rule="nonzero" opacity="1" stroke="none" vectornator:layerName="path"/>
<path d="M924.85 126.3C927.95 126.25 929.1 128.15 929.1 131.25C929.15 134.4 927.75 136.2 924.8 136.2C921.85 136.2 920.65 134.25 920.6 131.25C920.6 127.95 922 126.3 924.85 126.3ZM924.8 135C927 135.05 927.45 133.45 927.45 131.25C927.45 129.1 927.05 127.5 924.9 127.5C922.75 127.5 922.25 129.1 922.25 131.25C922.25 133.4 922.75 134.95 924.8 135" fill="#ffffff" fill-rule="nonzero" opacity="1" stroke="none" vectornator:layerName="path"/>
<path d="M934.05 136.2C929.6 136.4 931.35 130.4 931 126.5L932.6 126.5L932.6 132.5C932.6 134.05 932.95 135 934.55 134.95C938.15 134.85 936.8 129.9 937.05 126.5L938.6 126.5L938.65 136L937.15 136C937.1 135.5 937.2 134.75 937.05 134.35C936.5 135.45 935.65 136.15 934.05 136.2" fill="#ffffff" fill-rule="nonzero" opacity="1" stroke="none" vectornator:layerName="path"/>
<path d="M942.2 127.5L940.95 127.5L940.75 123.6L942.4 123.6" fill="#ffffff" fill-rule="nonzero" opacity="1" stroke="none" vectornator:layerName="path"/>
<path d="M948.95 127.85C945.05 127.05 946.3 132.4 946.1 136L944.5 136L944.45 126.5L945.95 126.5C946 127.1 945.9 127.95 946.05 128.45C946.35 127.1 947.2 126 948.95 126.4L948.95 127.85" fill="#ffffff" fill-rule="nonzero" opacity="1" stroke="none" vectornator:layerName="path"/>
<path d="M954.2 126.3C957.35 126.3 958.5 128.4 958.4 131.6L951.65 131.6C951.65 133.6 952.35 134.95 954.3 135C955.6 135.05 956.45 134.4 956.75 133.55L958.15 133.95C957.6 135.35 956.3 136.2 954.3 136.2C951.4 136.2 949.9 134.35 949.95 131.2C950 128.15 951.25 126.3 954.2 126.3ZM956.8 130.35C957.1 127.35 953 126.5 951.95 128.95C951.8 129.3 951.65 129.8 951.65 130.35L956.8 130.35" fill="#ffffff" fill-rule="nonzero" opacity="1" stroke="none" vectornator:layerName="path"/>
</g>
<g opacity="1" vectornator:layerName="t">
<path d="M969.9 127.85C966 127.05 967.25 132.4 967.05 136L965.45 136L965.4 126.5L966.9 126.5C966.95 127.1 966.85 127.95 967 128.45C967.3 127.1 968.15 126 969.9 126.4L969.9 127.85" fill="#ffffff" fill-rule="nonzero" opacity="1" stroke="none" vectornator:layerName="path"/>
<path d="M975.15 126.3C978.3 126.3 979.45 128.4 979.35 131.6L972.6 131.6C972.6 133.6 973.3 134.95 975.25 135C976.55 135.05 977.4 134.4 977.7 133.55L979.1 133.95C978.55 135.35 977.25 136.2 975.25 136.2C972.35 136.2 970.85 134.35 970.9 131.2C970.95 128.15 972.2 126.3 975.15 126.3ZM977.75 130.35C978.05 127.35 973.95 126.5 972.9 128.95C972.75 129.3 972.6 129.8 972.6 130.35L977.75 130.35" fill="#ffffff" fill-rule="nonzero" opacity="1" stroke="none" vectornator:layerName="path"/>
<path d="M987.2 134.2C986.45 135.25 985.65 136.25 983.8 136.2C982 136.15 980.9 135.15 980.9 133.35C980.85 130.15 984.05 130.2 987.15 130.2C987.3 128.45 986.7 127.5 985.1 127.5C983.9 127.55 983.05 127.85 983 129.05L981.35 128.9C981.6 127.05 983 126.3 985.15 126.3C987.4 126.3 988.75 127.3 988.75 129.5L988.75 133.6C988.7 134.6 989.1 135.2 990.15 134.95L990.15 135.95C988.6 136.4 987.1 135.85 987.2 134.2ZM982.55 133.35C982.55 134.35 983.15 135 984.15 135C986.2 134.85 987.3 133.55 987.15 131.3C985 131.4 982.55 131.05 982.55 133.35" fill="#ffffff" fill-rule="nonzero" opacity="1" stroke="none" vectornator:layerName="path"/>
<path d="M994.4 126.3C995.95 126.3 996.8 126.95 997.4 127.95L997.35 122.95L998.95 122.95L999 136L997.5 136C997.4 135.5 997.5 134.85 997.35 134.45C996.85 135.6 995.95 136.2 994.4 136.2C991.75 136.2 990.95 134.25 990.9 131.3C990.9 128 992.05 126.3 994.4 126.3ZM994.85 127.5C992.85 127.5 992.55 129.2 992.55 131.25C992.55 133.25 992.85 134.95 994.8 134.95C996.9 134.95 997.35 133.35 997.35 131.15C997.35 129.05 996.9 127.45 994.85 127.5" fill="#ffffff" fill-rule="nonzero" opacity="1" stroke="none" vectornator:layerName="path"/>
<path d="M1009.1 126.5L1004.8 137.55C1004.1 138.95 1002.95 140.1 1000.75 139.65L1000.75 138.45C1002.7 138.75 1003.4 137.45 1003.95 135.95L1000.2 126.5L1001.9 126.5L1004.75 134.3L1007.45 126.5L1009.1 126.5" fill="#ffffff" fill-rule="nonzero" opacity="1" stroke="none" vectornator:layerName="path"/>
</g>
</g>
<path d="M820.5 100L863.62 100" fill="none" opacity="1" stroke="#333333" stroke-linecap="butt" stroke-linejoin="miter" stroke-width="1" vectornator:layerName="path"/>
<path d="M820.5 100.5L820 100.5L820 99.5L820.5 99.5L820.5 100.5Z" fill="#333333" fill-rule="nonzero" opacity="1" stroke="#333333" stroke-linecap="butt" stroke-linejoin="miter" stroke-width="0.05" vectornator:layerName="path"/>
<path d="M878.38 100L864.12 104.63L864.12 95.37L878.38 100Z" fill="#333333" fill-rule="nonzero" opacity="1" stroke="#333333" stroke-linecap="butt" stroke-linejoin="miter" stroke-width="1" vectornator:layerName="path"/>
<path d="M1100 28C1100 23.5817 1103.58 20 1108 20L1252 20C1256.42 20 1260 23.5817 1260 28L1260 172C1260 176.418 1256.42 180 1252 180L1108 180C1103.58 180 1100 176.418 1100 172L1100 28Z" fill="#d85656" fill-rule="nonzero" opacity="1" stroke="#000000" stroke-linecap="butt" stroke-linejoin="miter" stroke-opacity="0" stroke-width="2" vectornator:layerName="path"/>
<g opacity="1" vectornator:layerName="g">
<g opacity="1" vectornator:layerName="u">
<path d="M1126.7 73.05C1126.2 71.65 1124.95 70.8 1123.05 70.8C1120.1 70.8 1118.7 72.8 1118.7 75.75C1118.7 78.75 1120.15 80.8 1123.15 80.8C1125.3 80.8 1126.25 79.6 1127.05 78.2L1128.4 78.9C1127.5 80.8 1125.85 82.2 1123.05 82.2C1119.05 82.2 1117.2 79.7 1117 75.75C1116.7 70.55 1121.95 68.1 1126.35 70.2C1127.3 70.65 1127.9 71.5 1128.3 72.5" fill="#ffffff" fill-rule="nonzero" opacity="1" stroke="none" vectornator:layerName="path"/>
<path d="M1134.75 73.85C1130.85 73.05 1132.1 78.4 1131.9 82L1130.3 82L1130.25 72.5L1131.75 72.5C1131.8 73.1 1131.7 73.95 1131.85 74.45C1132.15 73.1 1133 72 1134.75 72.4L1134.75 73.85" fill="#ffffff" fill-rule="nonzero" opacity="1" stroke="none" vectornator:layerName="path"/>
<path d="M1140 72.3C1143.15 72.3 1144.3 74.4 1144.2 77.6L1137.45 77.6C1137.45 79.6 1138.15 80.95 1140.1 81C1141.4 81.05 1142.25 80.4 1142.55 79.55L1143.95 79.95C1143.4 81.35 1142.1 82.2 1140.1 82.2C1137.2 82.2 1135.7 80.35 1135.75 77.2C1135.8 74.15 1137.05 72.3 1140 72.3ZM1142.6 76.35C1142.9 73.35 1138.8 72.5 1137.75 74.95C1137.6 75.3 1137.45 75.8 1137.45 76.35L1142.6 76.35" fill="#ffffff" fill-rule="nonzero" opacity="1" stroke="none" vectornator:layerName="path"/>
<path d="M1152.05 80.2C1151.3 81.25 1150.5 82.25 1148.65 82.2C1146.85 82.15 1145.75 81.15 1145.75 79.35C1145.7 76.15 1148.9 76.2 1152 76.2C1152.15 74.45 1151.55 73.5 1149.95 73.5C1148.75 73.55 1147.9 73.85 1147.85 75.05L1146.2 74.9C1146.45 73.05 1147.85 72.3 1150 72.3C1152.25 72.3 1153.6 73.3 1153.6 75.5L1153.6 79.6C1153.55 80.6 1153.95 81.2 1155 80.95L1155 81.95C1153.45 82.4 1151.95 81.85 1152.05 80.2ZM1147.4 79.35C1147.4 80.35 1148 81 1149 81C1151.05 80.85 1152.15 79.55 1152 77.3C1149.85 77.4 1147.4 77.05 1147.4 79.35" fill="#ffffff" fill-rule="nonzero" opacity="1" stroke="none" vectornator:layerName="path"/>
<path d="M1157.95 79.65C1157.85 80.85 1158.85 81.1 1159.85 80.75L1159.85 81.95C1158.2 82.45 1156.35 82.2 1156.35 80L1156.35 73.65L1155.25 73.65L1155.25 72.5L1156.45 72.5L1156.9 70.35L1157.95 70.35L1157.95 72.5L1159.7 72.5L1159.7 73.65L1157.95 73.65L1157.95 79.65" fill="#ffffff" fill-rule="nonzero" opacity="1" stroke="none" vectornator:layerName="path"/>
<path d="M1165 72.3C1168.15 72.3 1169.3 74.4 1169.2 77.6L1162.45 77.6C1162.45 79.6 1163.15 80.95 1165.1 81C1166.4 81.05 1167.25 80.4 1167.55 79.55L1168.95 79.95C1168.4 81.35 1167.1 82.2 1165.1 82.2C1162.2 82.2 1160.7 80.35 1160.75 77.2C1160.8 74.15 1162.05 72.3 1165 72.3ZM1167.6 76.35C1167.9 73.35 1163.8 72.5 1162.75 74.95C1162.6 75.3 1162.45 75.8 1162.45 76.35L1167.6 76.35" fill="#ffffff" fill-rule="nonzero" opacity="1" stroke="none" vectornator:layerName="path"/>
<path d="M1170 82.2L1173.6 68.95L1175 68.95L1171.4 82.2L1170 82.2" fill="#ffffff" fill-rule="nonzero" opacity="1" stroke="none" vectornator:layerName="path"/>
<path d="M1180 72.3C1183.15 72.3 1184.3 74.4 1184.2 77.6L1177.45 77.6C1177.45 79.6 1178.15 80.95 1180.1 81C1181.4 81.05 1182.25 80.4 1182.55 79.55L1183.95 79.95C1183.4 81.35 1182.1 82.2 1180.1 82.2C1177.2 82.2 1175.7 80.35 1175.75 77.2C1175.8 74.15 1177.05 72.3 1180 72.3ZM1182.6 76.35C1182.9 73.35 1178.8 72.5 1177.75 74.95C1177.6 75.3 1177.45 75.8 1177.45 76.35L1182.6 76.35" fill="#ffffff" fill-rule="nonzero" opacity="1" stroke="none" vectornator:layerName="path"/>
<path d="M1189.25 72.3C1190.8 72.3 1191.65 72.95 1192.25 73.95L1192.2 68.95L1193.8 68.95L1193.85 82L1192.35 82C1192.25 81.5 1192.35 80.85 1192.2 80.45C1191.7 81.6 1190.8 82.2 1189.25 82.2C1186.6 82.2 1185.8 80.25 1185.75 77.3C1185.75 74 1186.9 72.3 1189.25 72.3ZM1189.7 73.5C1187.7 73.5 1187.4 75.2 1187.4 77.25C1187.4 79.25 1187.7 80.95 1189.65 80.95C1191.75 80.95 1192.2 79.35 1192.2 77.15C1192.2 75.05 1191.75 73.45 1189.7 73.5" fill="#ffffff" fill-rule="nonzero" opacity="1" stroke="none" vectornator:layerName="path"/>
<path d="M1196.2 70.45L1196.2 68.95L1197.8 68.95L1197.8 70.45L1196.2 70.45ZM1196.2 82L1196.2 72.5L1197.8 72.5L1197.8 82L1196.2 82" fill="#ffffff" fill-rule="nonzero" opacity="1" stroke="none" vectornator:layerName="path"/>
<path d="M1201.9 79.65C1201.8 80.85 1202.8 81.1 1203.8 80.75L1203.8 81.95C1202.15 82.45 1200.3 82.2 1200.3 80L1200.3 73.65L1199.2 73.65L1199.2 72.5L1200.4 72.5L1200.85 70.35L1201.9 70.35L1201.9 72.5L1203.65 72.5L1203.65 73.65L1201.9 73.65L1201.9 79.65" fill="#ffffff" fill-rule="nonzero" opacity="1" stroke="none" vectornator:layerName="path"/>
</g>
<g opacity="1" vectornator:layerName="v">
<path d="M1217.9 72.5L1213.6 83.55C1212.9 84.95 1211.75 86.1 1209.55 85.65L1209.55 84.45C1211.5 84.75 1212.2 83.45 1212.75 81.95L1209 72.5L1210.7 72.5L1213.55 80.3L1216.25 72.5L1217.9 72.5" fill="#ffffff" fill-rule="nonzero" opacity="1" stroke="none" vectornator:layerName="path"/>
<path d="M1222.95 72.3C1226.05 72.25 1227.2 74.15 1227.2 77.25C1227.25 80.4 1225.85 82.2 1222.9 82.2C1219.95 82.2 1218.75 80.25 1218.7 77.25C1218.7 73.95 1220.1 72.3 1222.95 72.3ZM1222.9 81C1225.1 81.05 1225.55 79.45 1225.55 77.25C1225.55 75.1 1225.15 73.5 1223 73.5C1220.85 73.5 1220.35 75.1 1220.35 77.25C1220.35 79.4 1220.85 80.95 1222.9 81" fill="#ffffff" fill-rule="nonzero" opacity="1" stroke="none" vectornator:layerName="path"/>
<path d="M1232.15 82.2C1227.7 82.4 1229.45 76.4 1229.1 72.5L1230.7 72.5L1230.7 78.5C1230.7 80.05 1231.05 81 1232.65 80.95C1236.25 80.85 1234.9 75.9 1235.15 72.5L1236.7 72.5L1236.75 82L1235.25 82C1235.2 81.5 1235.3 80.75 1235.15 80.35C1234.6 81.45 1233.75 82.15 1232.15 82.2" fill="#ffffff" fill-rule="nonzero" opacity="1" stroke="none" vectornator:layerName="path"/>
<path d="M1243.65 73.85C1239.75 73.05 1241 78.4 1240.8 82L1239.2 82L1239.15 72.5L1240.65 72.5C1240.7 73.1 1240.6 73.95 1240.75 74.45C1241.05 73.1 1241.9 72 1243.65 72.4L1243.65 73.85" fill="#ffffff" fill-rule="nonzero" opacity="1" stroke="none" vectornator:layerName="path"/>
</g>
<g opacity="1" vectornator:layerName="w">
<path d="M1130.38 95.15C1128.38 95.15 1127.98 96.8 1127.98 98.8C1127.98 100.8 1128.43 102.55 1130.38 102.55C1131.58 102.55 1132.43 101.85 1132.53 100.65L1134.13 100.75C1133.83 102.6 1132.58 103.8 1130.43 103.8C1127.48 103.8 1126.63 101.75 1126.33 98.85C1125.83 94.2 1131.38 92.3 1133.68 95.65C1133.88 96 1133.93 96.35 1134.03 96.75L1132.43 96.9C1132.23 95.85 1131.63 95.15 1130.38 95.15" fill="#ffffff" fill-rule="nonzero" opacity="1" stroke="none" vectornator:layerName="path"/>
<path d="M1139.88 95.15C1136.28 95.15 1137.68 100.25 1137.43 103.6L1135.83 103.6L1135.83 90.55L1137.43 90.55L1137.38 95.7C1137.98 94.65 1138.78 93.9 1140.43 93.9C1144.88 93.9 1143.08 99.7 1143.43 103.6L1141.83 103.6L1141.83 97.55C1141.93 95.95 1141.43 95.1 1139.88 95.15" fill="#ffffff" fill-rule="nonzero" opacity="1" stroke="none" vectornator:layerName="path"/>
<path d="M1151.63 101.8C1150.88 102.85 1150.08 103.85 1148.23 103.8C1146.43 103.75 1145.33 102.75 1145.33 100.95C1145.28 97.75 1148.48 97.8 1151.58 97.8C1151.73 96.05 1151.13 95.1 1149.53 95.1C1148.33 95.15 1147.48 95.45 1147.43 96.65L1145.78 96.5C1146.03 94.65 1147.43 93.9 1149.58 93.9C1151.83 93.9 1153.18 94.9 1153.18 97.1L1153.18 101.2C1153.13 102.2 1153.53 102.8 1154.58 102.55L1154.58 103.55C1153.03 104 1151.53 103.45 1151.63 101.8ZM1146.98 100.95C1146.98 101.95 1147.58 102.6 1148.58 102.6C1150.63 102.45 1151.73 101.15 1151.58 98.9C1149.43 99 1146.98 98.65 1146.98 100.95" fill="#ffffff" fill-rule="nonzero" opacity="1" stroke="none" vectornator:layerName="path"/>
<path d="M1160.43 93.9C1164.88 93.7 1163.08 99.7 1163.43 103.6L1161.83 103.6L1161.83 97.55C1161.83 96 1161.43 95.1 1159.88 95.15C1156.28 95.25 1157.68 100.25 1157.43 103.6L1155.83 103.6L1155.78 94.1L1157.28 94.1C1157.33 94.6 1157.23 95.3 1157.38 95.7C1157.93 94.6 1158.83 93.95 1160.43 93.9" fill="#ffffff" fill-rule="nonzero" opacity="1" stroke="none" vectornator:layerName="path"/>
<path d="M1170.43 93.9C1174.88 93.7 1173.08 99.7 1173.43 103.6L1171.83 103.6L1171.83 97.55C1171.83 96 1171.43 95.1 1169.88 95.15C1166.28 95.25 1167.68 100.25 1167.43 103.6L1165.83 103.6L1165.78 94.1L1167.28 94.1C1167.33 94.6 1167.23 95.3 1167.38 95.7C1167.93 94.6 1168.83 93.95 1170.43 93.9" fill="#ffffff" fill-rule="nonzero" opacity="1" stroke="none" vectornator:layerName="path"/>
<path d="M1179.58 93.9C1182.73 93.9 1183.88 96 1183.78 99.2L1177.03 99.2C1177.03 101.2 1177.73 102.55 1179.68 102.6C1180.98 102.65 1181.83 102 1182.13 101.15L1183.53 101.55C1182.98 102.95 1181.68 103.8 1179.68 103.8C1176.78 103.8 1175.28 101.95 1175.33 98.8C1175.38 95.75 1176.63 93.9 1179.58 93.9ZM1182.18 97.95C1182.48 94.95 1178.38 94.1 1177.33 96.55C1177.18 96.9 1177.03 97.4 1177.03 97.95L1182.18 97.95" fill="#ffffff" fill-rule="nonzero" opacity="1" stroke="none" vectornator:layerName="path"/>
<path d="M1185.78 103.6L1185.78 90.55L1187.38 90.55L1187.38 103.6L1185.78 103.6" fill="#ffffff" fill-rule="nonzero" opacity="1" stroke="none" vectornator:layerName="path"/>
<path d="M1192.88 107.35C1190.98 105.25 1189.63 102.75 1189.63 98.9C1189.63 95.1 1191.03 92.6 1192.88 90.55L1194.43 90.55C1192.53 92.6 1191.23 95.15 1191.23 98.95C1191.23 102.75 1192.53 105.3 1194.43 107.35L1192.88 107.35" fill="#ffffff" fill-rule="nonzero" opacity="1" stroke="none" vectornator:layerName="path"/>
<path d="M1201.23 96.45C1201.08 94.75 1196.93 94.55 1196.88 96.45C1197.63 99.1 1202.63 97.05 1202.83 100.95C1203.03 104.85 1195.33 104.65 1194.98 101.35L1196.38 101.1C1196.58 102.9 1201.23 103.35 1201.28 101.1C1200.78 98.3 1195.63 100.35 1195.38 96.6C1195.18 93.75 1199.48 93.45 1201.48 94.5C1202.08 94.85 1202.53 95.45 1202.68 96.25" fill="#ffffff" fill-rule="nonzero" opacity="1" stroke="none" vectornator:layerName="path"/>
<path d="M1205.13 90.55C1207.03 92.6 1208.38 95.15 1208.38 98.95C1208.38 102.75 1207.03 105.3 1205.13 107.35L1203.58 107.35C1205.43 105.3 1206.78 102.75 1206.78 98.95C1206.78 95.15 1205.43 92.6 1203.58 90.55L1205.13 90.55" fill="#ffffff" fill-rule="nonzero" opacity="1" stroke="none" vectornator:layerName="path"/>
</g>
<g opacity="1" vectornator:layerName="x">
<path d="M1219.43 93.9C1222.53 93.85 1223.68 95.75 1223.68 98.85C1223.73 102 1222.33 103.8 1219.38 103.8C1216.43 103.8 1215.23 101.85 1215.18 98.85C1215.18 95.55 1216.58 93.9 1219.43 93.9ZM1219.38 102.6C1221.58 102.65 1222.03 101.05 1222.03 98.85C1222.03 96.7 1221.63 95.1 1219.48 95.1C1217.33 95.1 1216.83 96.7 1216.83 98.85C1216.83 101 1217.33 102.55 1219.38 102.6" fill="#ffffff" fill-rule="nonzero" opacity="1" stroke="none" vectornator:layerName="path"/>
<path d="M1230.28 93.9C1234.73 93.7 1232.93 99.7 1233.28 103.6L1231.68 103.6L1231.68 97.55C1231.68 96 1231.28 95.1 1229.73 95.15C1226.13 95.25 1227.53 100.25 1227.28 103.6L1225.68 103.6L1225.63 94.1L1227.13 94.1C1227.18 94.6 1227.08 95.3 1227.23 95.7C1227.78 94.6 1228.68 93.95 1230.28 93.9" fill="#ffffff" fill-rule="nonzero" opacity="1" stroke="none" vectornator:layerName="path"/>
</g>
<g opacity="1" vectornator:layerName="y">
<path d="M1124.8 113.5C1123.25 113.05 1122.7 114 1122.9 115.7L1124.8 115.7L1124.8 116.85L1122.9 116.85L1122.9 125.2L1121.35 125.2L1121.35 116.85L1120 116.85L1120 115.7L1121.35 115.7C1121 113.1 1122.2 111.6 1124.8 112.3L1124.8 113.5" fill="#ffffff" fill-rule="nonzero" opacity="1" stroke="none" vectornator:layerName="path"/>
<path d="M1130.45 117.05C1126.55 116.25 1127.8 121.6 1127.6 125.2L1126 125.2L1125.95 115.7L1127.45 115.7C1127.5 116.3 1127.4 117.15 1127.55 117.65C1127.85 116.3 1128.7 115.2 1130.45 115.6L1130.45 117.05" fill="#ffffff" fill-rule="nonzero" opacity="1" stroke="none" vectornator:layerName="path"/>
<path d="M1135.7 115.5C1138.85 115.5 1140 117.6 1139.9 120.8L1133.15 120.8C1133.15 122.8 1133.85 124.15 1135.8 124.2C1137.1 124.25 1137.95 123.6 1138.25 122.75L1139.65 123.15C1139.1 124.55 1137.8 125.4 1135.8 125.4C1132.9 125.4 1131.4 123.55 1131.45 120.4C1131.5 117.35 1132.75 115.5 1135.7 115.5ZM1138.3 119.55C1138.6 116.55 1134.5 115.7 1133.45 118.15C1133.3 118.5 1133.15 119 1133.15 119.55L1138.3 119.55" fill="#ffffff" fill-rule="nonzero" opacity="1" stroke="none" vectornator:layerName="path"/>
<path d="M1141.9 113.65L1141.9 112.15L1143.5 112.15L1143.5 113.65L1141.9 113.65ZM1141.9 125.2L1141.9 115.7L1143.5 115.7L1143.5 125.2L1141.9 125.2" fill="#ffffff" fill-rule="nonzero" opacity="1" stroke="none" vectornator:layerName="path"/>
<path d="M1151.9 123.65C1151.35 124.75 1150.45 125.4 1148.9 125.4C1146.25 125.4 1145.45 123.45 1145.4 120.5C1145.4 117.55 1146.25 115.55 1148.9 115.5C1150.5 115.45 1151.3 116.2 1151.9 117.15C1151.9 116.6 1151.85 115.95 1152 115.55L1153.5 115.55L1153.45 128.95L1151.85 128.95L1151.9 123.65ZM1149.3 124.15C1151.35 124.15 1151.85 122.5 1151.85 120.35C1151.85 118.2 1151.45 116.7 1149.35 116.7C1147.35 116.7 1147.05 118.45 1147.05 120.45C1147.05 122.45 1147.3 124.15 1149.3 124.15" fill="#ffffff" fill-rule="nonzero" opacity="1" stroke="none" vectornator:layerName="path"/>
<path d="M1158.85 125.4C1154.4 125.6 1156.15 119.6 1155.8 115.7L1157.4 115.7L1157.4 121.7C1157.4 123.25 1157.75 124.2 1159.35 124.15C1162.95 124.05 1161.6 119.1 1161.85 115.7L1163.4 115.7L1163.45 125.2L1161.95 125.2C1161.9 124.7 1162 123.95 1161.85 123.55C1161.3 124.65 1160.45 125.35 1158.85 125.4" fill="#ffffff" fill-rule="nonzero" opacity="1" stroke="none" vectornator:layerName="path"/>
<path d="M1169.65 115.5C1172.8 115.5 1173.95 117.6 1173.85 120.8L1167.1 120.8C1167.1 122.8 1167.8 124.15 1169.75 124.2C1171.05 124.25 1171.9 123.6 1172.2 122.75L1173.6 123.15C1173.05 124.55 1171.75 125.4 1169.75 125.4C1166.85 125.4 1165.35 123.55 1165.4 120.4C1165.45 117.35 1166.7 115.5 1169.65 115.5ZM1172.25 119.55C1172.55 116.55 1168.45 115.7 1167.4 118.15C1167.25 118.5 1167.1 119 1167.1 119.55L1172.25 119.55" fill="#ffffff" fill-rule="nonzero" opacity="1" stroke="none" vectornator:layerName="path"/>
<path d="M1180.5 115.5C1184.95 115.3 1183.15 121.3 1183.5 125.2L1181.9 125.2L1181.9 119.15C1181.9 117.6 1181.5 116.7 1179.95 116.75C1176.35 116.85 1177.75 121.85 1177.5 125.2L1175.9 125.2L1175.85 115.7L1177.35 115.7C1177.4 116.2 1177.3 116.9 1177.45 117.3C1178 116.2 1178.9 115.55 1180.5 115.5" fill="#ffffff" fill-rule="nonzero" opacity="1" stroke="none" vectornator:layerName="path"/>
<path d="M1189.45 116.75C1187.45 116.75 1187.05 118.4 1187.05 120.4C1187.05 122.4 1187.5 124.15 1189.45 124.15C1190.65 124.15 1191.5 123.45 1191.6 122.25L1193.2 122.35C1192.9 124.2 1191.65 125.4 1189.5 125.4C1186.55 125.4 1185.7 123.35 1185.4 120.45C1184.9 115.8 1190.45 113.9 1192.75 117.25C1192.95 117.6 1193 117.95 1193.1 118.35L1191.5 118.5C1191.3 117.45 1190.7 116.75 1189.45 116.75" fill="#ffffff" fill-rule="nonzero" opacity="1" stroke="none" vectornator:layerName="path"/>
<path d="M1202.6 115.7L1198.3 126.75C1197.6 128.15 1196.45 129.3 1194.25 128.85L1194.25 127.65C1196.2 127.95 1196.9 126.65 1197.45 125.15L1193.7 115.7L1195.4 115.7L1198.25 123.5L1200.95 115.7L1202.6 115.7" fill="#ffffff" fill-rule="nonzero" opacity="1" stroke="none" vectornator:layerName="path"/>
<path d="M1202.95 125.2L1202.95 123.3L1204.65 123.3L1204.65 125.2L1202.95 125.2" fill="#ffffff" fill-rule="nonzero" opacity="1" stroke="none" vectornator:layerName="path"/>
<path d="M1211.1 116.75C1209.1 116.75 1208.7 118.4 1208.7 120.4C1208.7 122.4 1209.15 124.15 1211.1 124.15C1212.3 124.15 1213.15 123.45 1213.25 122.25L1214.85 122.35C1214.55 124.2 1213.3 125.4 1211.15 125.4C1208.2 125.4 1207.35 123.35 1207.05 120.45C1206.55 115.8 1212.1 113.9 1214.4 117.25C1214.6 117.6 1214.65 117.95 1214.75 118.35L1213.15 118.5C1212.95 117.45 1212.35 116.75 1211.1 116.75" fill="#ffffff" fill-rule="nonzero" opacity="1" stroke="none" vectornator:layerName="path"/>
<path d="M1220.3 115.5C1223.4 115.45 1224.55 117.35 1224.55 120.45C1224.6 123.6 1223.2 125.4 1220.25 125.4C1217.3 125.4 1216.1 123.45 1216.05 120.45C1216.05 117.15 1217.45 115.5 1220.3 115.5ZM1220.25 124.2C1222.45 124.25 1222.9 122.65 1222.9 120.45C1222.9 118.3 1222.5 116.7 1220.35 116.7C1218.2 116.7 1217.7 118.3 1217.7 120.45C1217.7 122.6 1218.2 124.15 1220.25 124.2" fill="#ffffff" fill-rule="nonzero" opacity="1" stroke="none" vectornator:layerName="path"/>
<path d="M1235.8 116.75C1232.45 116.9 1233.9 122 1233.6 125.2L1232.05 125.2L1232.05 119.15C1232.05 117.7 1231.8 116.65 1230.3 116.75C1227 116.95 1228.4 121.95 1228.1 125.2L1226.55 125.2L1226.5 115.7L1228 115.7C1228.05 116.2 1227.95 116.9 1228.1 117.3C1228.6 115.1 1233.05 114.8 1233.45 117.3C1234 116.25 1234.8 115.55 1236.35 115.5C1240.6 115.4 1238.7 121.45 1239.1 125.2L1237.55 125.2L1237.55 119.15C1237.55 117.7 1237.3 116.7 1235.8 116.75" fill="#ffffff" fill-rule="nonzero" opacity="1" stroke="none" vectornator:layerName="path"/>
</g>
</g>
<path d="M1040.5 100L1083.62 100M1040.5 100L1040 100" fill="none" opacity="1" stroke="#333333" stroke-linecap="butt" stroke-linejoin="miter" stroke-width="1" vectornator:layerName="path"/>
<path d="M1098.38 100L1084.12 104.63L1084.12 95.37L1098.38 100Z" fill="#333333" fill-rule="nonzero" opacity="1" stroke="#333333" stroke-linecap="butt" stroke-linejoin="miter" stroke-width="1" vectornator:layerName="path"/>
</g>
</g>
</svg>
